<svg version="1.2" xmlns="http://www.w3.org/2000/svg" viewBox="0 0 751 501" width="751" height="501"><style>.a{fill:#fff4f0}.b{fill:#ffeae3}.c{fill:#b4cbdd}.d{fill:#bcd5e8}.e{fill:#b2cbde}.f{fill:none;stroke:#450d20;stroke-width:.9}.g{fill:#d13f40}.h{fill:#fcc574}.i{fill:#fff}.j{fill:#450d20}.k{fill:#69ceff}.l{fill:#6376bf}.m{fill:#ffe6de}.n{fill:#decac3}.o{fill:#bfffc5}.p{fill:#3a4670}.q{fill:#fa9778}.r{fill:#c73b3c}.s{fill:#fcc16a}.t{opacity:.9;fill:#eddad3}.u{fill:#e35253}.v{fill:#3d3d3d}.w{fill:#d1d9d1}.x{fill:#e9f2e9}.y{fill:#eddad3}.z{fill:#fa8864}</style><path class="a" d="m751 501h-750v-500h750z"/><path class="b" d="m55 37.6h-54v-36.6h54z"/><path class="b" d="m159.7 37.6h-98.3v-36.6h98.3z"/><path class="b" d="m264.8 37.6h-98.3v-36.6h98.3z"/><path class="b" d="m369.9 37.6h-98.2v-36.6h98.2z"/><path class="b" d="m475 37.6h-98.2v-36.6h98.2z"/><path class="b" d="m580.2 37.6h-98.3v-36.6h98.3z"/><path class="b" d="m685.3 37.6h-98.3v-36.6h98.3z"/><path class="b" d="m751 37.6h-58.8v-36.6h58.8z"/><path class="b" d="m108.1 80.4h-98.2v-36.6h98.2z"/><path class="b" d="m213.2 80.4h-98.2v-36.6h98.2z"/><path class="b" d="m318.4 80.4h-98.3v-36.6h98.3z"/><path class="b" d="m423.5 80.4h-98.3v-36.6h98.3z"/><path class="b" d="m528.6 80.4h-98.2v-36.6h98.2z"/><path class="b" d="m633.7 80.4h-98.2v-36.6h98.2z"/><path class="b" d="m738.9 80.4h-98.3v-36.6h98.3z"/><path class="b" d="m55 125.9h-54v-36.7h54z"/><path class="b" d="m159.7 125.9h-98.3v-36.7h98.3z"/><path class="b" d="m264.8 125.9h-98.3v-36.7h98.3z"/><path class="b" d="m369.9 125.9h-98.2v-36.7h98.2z"/><path class="b" d="m475 125.9h-98.2v-36.7h98.2z"/><path class="b" d="m580.2 125.9h-98.3v-36.7h98.3z"/><path class="b" d="m685.3 125.9h-98.3v-36.7h98.3z"/><path class="b" d="m751 125.9h-58.8v-36.7h58.8z"/><path class="b" d="m108.1 168.7h-98.2v-36.6h98.2z"/><path class="b" d="m213.2 168.7h-98.2v-36.6h98.2z"/><path class="b" d="m318.4 168.7h-98.3v-36.6h98.3z"/><path class="b" d="m423.5 168.7h-98.3v-36.6h98.3z"/><path class="b" d="m528.6 168.7h-98.2v-36.6h98.2z"/><path class="b" d="m633.7 168.7h-98.2v-36.6h98.2z"/><path class="b" d="m738.9 168.7h-98.3v-36.6h98.3z"/><path class="b" d="m55 214.1h-54v-36.6h54z"/><path class="b" d="m159.7 214.1h-98.3v-36.6h98.3z"/><path class="b" d="m264.8 214.1h-98.3v-36.6h98.3z"/><path class="b" d="m369.9 214.1h-98.2v-36.6h98.2z"/><path class="b" d="m475 214.1h-98.2v-36.6h98.2z"/><path class="b" d="m580.2 214.1h-98.3v-36.6h98.3z"/><path class="b" d="m685.3 214.1h-98.3v-36.6h98.3z"/><path class="b" d="m751 214.1h-58.8v-36.6h58.8z"/><path class="b" d="m108.1 256.9h-98.2v-36.6h98.2z"/><path class="b" d="m213.2 256.9h-98.2v-36.6h98.2z"/><path class="b" d="m318.4 256.9h-98.3v-36.6h98.3z"/><path class="b" d="m423.5 256.9h-98.3v-36.6h98.3z"/><path class="b" d="m528.6 256.9h-98.2v-36.6h98.2z"/><path class="b" d="m633.7 256.9h-98.2v-36.6h98.2z"/><path class="b" d="m738.9 256.9h-98.3v-36.6h98.3z"/><path class="b" d="m55 302.4h-54v-36.7h54z"/><path class="b" d="m159.7 302.4h-98.3v-36.7h98.3z"/><path class="b" d="m264.8 302.4h-98.3v-36.7h98.3z"/><path class="b" d="m369.9 302.4h-98.2v-36.7h98.2z"/><path class="b" d="m475 302.4h-98.2v-36.7h98.2z"/><path class="b" d="m580.2 302.4h-98.3v-36.7h98.3z"/><path class="b" d="m685.3 302.4h-98.3v-36.7h98.3z"/><path class="b" d="m751 302.4h-58.8v-36.7h58.8z"/><path class="b" d="m108.1 345.2h-98.2v-36.6h98.2z"/><path class="b" d="m213.2 345.2h-98.2v-36.6h98.2z"/><path class="b" d="m318.4 345.2h-98.3v-36.6h98.3z"/><path class="b" d="m423.5 345.2h-98.3v-36.6h98.3z"/><path class="b" d="m528.6 345.2h-98.2v-36.6h98.2z"/><path class="b" d="m633.7 345.2h-98.2v-36.6h98.2z"/><path class="b" d="m738.9 345.2h-98.3v-36.6h98.3z"/><path class="b" d="m751 501h-750v-151.1h750z"/><path class="c" d="m46.9 84.8h449c3 0 5.5 2.4 5.5 5.5v256.4c0 1.7-1.4 3.2-3.2 3.2h-453.6c-1.8 0-3.2-1.5-3.2-3.2v-256.4c0-3.1 2.5-5.5 5.5-5.5z"/><path class="d" d="m52.5 96.3h97.2v195.2h-97.2z"/><path class="d" d="m165.4 96.3h97.1v195.2h-97.1z"/><path class="d" d="m280.4 96.3h97.1v195.2h-97.1z"/><path class="d" d="m393.2 96.3h97.1v195.2h-97.1z"/><path class="e" d="m52.5 138.1h437.8v6.2h-437.8z"/><path class="e" d="m52.5 196.9h437.8v6.2h-437.8z"/><path class="e" d="m52.5 255.6h437.8v6.3h-437.8z"/><path class="f" d="m156.4 84.8v265.1"/><path class="f" d="m271.4 84.8v265.1"/><path class="f" d="m386.4 84.8v265.1"/><path class="f" d="m52.5 298h19.7"/><path class="f" d="m52.5 301.8h19.7"/><path class="f" d="m52.5 305.7h11.3"/><path class="f" d="m149.7 334.7h-19.2v-12.9h19.2z"/><path class="f" d="m148 193.9h-7v-19.7h7z"/><path class="f" d="m165.4 298h19.6"/><path class="f" d="m165.4 301.8h19.6"/><path class="f" d="m165.4 305.7h11.2"/><path class="f" d="m262.5 334.7h-19.2v-12.9h19.2z"/><path class="f" d="m260.8 193.9h-7v-19.7h7z"/><path class="f" d="m280.4 298h19.6"/><path class="f" d="m280.4 301.8h19.6"/><path class="f" d="m280.4 305.7h11.2"/><path class="f" d="m377.5 334.7h-19.2v-12.9h19.2z"/><path class="f" d="m375.8 193.9h-7v-19.7h7z"/><path class="f" d="m393.5 298h19.6"/><path class="f" d="m393.5 301.8h19.6"/><path class="f" d="m393.5 305.7h11.3"/><path class="f" d="m490.6 334.7h-19.1v-12.9h19.1z"/><path class="f" d="m489 193.9h-7v-19.7h7z"/><path class="g" d="m309.8 111.9v25.5c0 0.4-0.3 0.7-0.7 0.7h-18.4c-0.4 0-0.7-0.3-0.7-0.7v-25.5l0.7-2v-2.2h18.2v2.2z"/><path class="h" d="m309.4 108h-19.1v-0.9c0-0.6 0.6-1.2 1.3-1.2h16.6c0.6 0 1.2 0.6 1.2 1.2z"/><path class="i" d="m309.8 130.5h-19.8v-12.2h19.8z"/><path class="j" d="m300.1 112.3h-9.4v-1h9.4z"/><path class="j" d="m309.8 129.5h-19.8v-1h19.8z"/><path class="j" d="m309.8 120h-19.8v-1h19.8z"/><path class="g" d="m337.2 111.9v25.5c0 0.4-0.4 0.7-0.8 0.7h-18.4c-0.4 0-0.7-0.3-0.7-0.7v-25.5l0.8-2v-2.2h18.2v2.2z"/><path class="h" d="m336.8 108h-19.1v-0.9c0-0.6 0.6-1.2 1.3-1.2h16.5c0.7 0 1.3 0.6 1.3 1.2z"/><path class="i" d="m337.2 130.5h-19.9v-12.2h19.9z"/><path class="j" d="m327.4 112.3h-9.3v-1h9.3z"/><path class="j" d="m337.2 129.5h-19.9v-1h19.9z"/><path class="j" d="m337.2 120h-19.9v-1h19.9z"/><path class="g" d="m364.5 111.9v25.5c0 0.4-0.3 0.7-0.7 0.7h-18.4c-0.4 0-0.7-0.3-0.7-0.7v-25.5l0.7-2v-2.2h18.3v2.2z"/><path class="h" d="m364.1 108h-19v-0.9c0-0.6 0.5-1.2 1.2-1.2h16.6c0.7 0 1.2 0.6 1.2 1.2z"/><path class="i" d="m364.5 130.5h-19.8v-12.2h19.8z"/><path class="j" d="m354.8 112.3h-9.4v-1h9.4z"/><path class="j" d="m364.5 129.5h-19.8v-1h19.8z"/><path class="j" d="m364.5 120h-19.8v-1h19.8z"/><path class="g" d="m307 291.5h-24v-10.2h24z"/><path class="i" d="m307.8 281.3h-25.6v-2.3h25.6z"/><path class="h" d="m307 289.5h-24v-6.4h24z"/><path class="j" d="m306.4 289.2h-3.4v-1h3.4z"/><path class="j" d="m307 282.3h-24v-1h24z"/><path class="g" d="m339.3 291.5h-24.1v-10.2h24.1z"/><path class="i" d="m340.1 281.3h-25.7v-2.3h25.7z"/><path class="h" d="m339.3 289.5h-24.1v-6.4h24.1z"/><path class="j" d="m338.7 289.2h-3.4v-1h3.4z"/><path class="j" d="m339.3 282.3h-24.1v-1h24.1z"/><path class="g" d="m323 278.8h-24v-10.2h24z"/><path class="i" d="m323.8 268.6h-25.6v-2.3h25.6z"/><path class="h" d="m323 276.8h-24v-6.4h24z"/><path class="j" d="m322.4 276.5h-3.4v-1h3.4z"/><path class="j" d="m323 269.6h-24v-1h24z"/><path class="g" d="m355.2 278.8h-24.1v-10.2h24.1z"/><path class="i" d="m356 268.6h-25.7v-2.3h25.7z"/><path class="h" d="m355.2 276.8h-24.1v-6.4h24.1z"/><path class="j" d="m354.6 276.5h-3.4v-1h3.4z"/><path class="j" d="m355.2 269.6h-24.1v-1h24.1z"/><path class="g" d="m371.5 291.5h-24v-10.2h24z"/><path class="i" d="m372.3 281.3h-25.6v-2.3h25.6z"/><path class="h" d="m371.5 289.5h-24v-6.4h24z"/><path class="j" d="m370.9 289.2h-3.4v-1h3.4z"/><path class="j" d="m371.5 282.3h-24v-1h24z"/><path class="i" d="m297.8 168.9h-10.6v-3h10.6z"/><path class="i" d="m299.5 196.9h-14v-6.4h14z"/><path class="k" d="m300 169.9v25.2h-15v-25.2l0.4-0.6 1.5-2.4h10.9l1.8 2.4z"/><path class="j" d="m300 169.9v0.3h-15v-0.3l0.4-0.6h14.2z"/><path class="j" d="m300 192.2v0.9h-15v-0.9z"/><path class="j" d="m300 172.3v1.3l-15 15.1v-1.3z"/><path class="j" d="m300 176.9v1.3l-14.8 14.9-0.2-0.2v-0.9z"/><path class="i" d="m317.8 168.9h-10.6v-3h10.6z"/><path class="i" d="m319.5 196.9h-14v-6.4h14z"/><path class="k" d="m320 169.9v25.2h-15v-25.2l0.4-0.6 1.5-2.4h10.9l1.7 2.4z"/><path class="j" d="m320 169.9v0.3h-15v-0.3l0.4-0.6h14.1z"/><path class="j" d="m320 192.2v0.9h-15v-0.9z"/><path class="j" d="m320 172.3v1.3l-15 15.1v-1.3z"/><path class="j" d="m320 176.9v1.3l-14.8 14.9-0.2-0.2v-0.9z"/><path class="i" d="m338.5 168.9h-10.7v-3h10.7z"/><path class="i" d="m340.1 196.9h-14v-6.4h14z"/><path class="k" d="m340.7 169.9v25.2h-15.1v-25.2l0.4-0.6 1.5-2.4h10.9 0.1l1.7 2.4z"/><path class="j" d="m340.7 169.9v0.3h-15.1v-0.3l0.4-0.6h14.2z"/><path class="j" d="m340.7 192.2v0.9h-15.1v-0.9z"/><path class="j" d="m340.7 172.3v1.3l-15.1 15.1v-1.3z"/><path class="j" d="m340.7 176.9v1.3l-14.9 14.9-0.2-0.2v-0.9z"/><path class="i" d="m360.6 168.9h-10.7v-3h10.7z"/><path class="i" d="m362.3 196.9h-14.1v-6.4h14.1z"/><path class="k" d="m362.8 169.9v25.2h-15.1v-25.2l0.4-0.6 1.5-2.4h10.9 0.1l1.7 2.4z"/><path class="j" d="m362.8 169.9v0.3h-15.1v-0.3l0.4-0.6h14.2z"/><path class="j" d="m362.8 192.2v0.9h-15.1v-0.9z"/><path class="j" d="m362.8 172.3v1.3l-15.1 15.1v-1.3z"/><path class="j" d="m362.8 176.9v1.3l-14.9 14.9-0.2-0.2v-0.9z"/><path class="h" d="m370.1 255.6h-18.5v-34.7l9.2-11.4 9.3 11.4z"/><path class="h" d="m360.8 210.8c-0.2 0-0.4-0.1-0.4-0.4v-3.5c0-0.3 0.2-0.5 0.4-0.5 0.3 0 0.5 0.2 0.5 0.5v3.5c0 0.3-0.2 0.4-0.5 0.4z"/><path class="l" d="m368.8 244.1h-15.5v-20.8h15.5z"/><path class="j" d="m368.8 221.5h-16.2v-1h16.2z"/><path class="j" d="m367.2 219.9l-6.2-7.7-6.2 7.7-0.7-0.6 6.5-8.2c0.2-0.2 0.6-0.2 0.8 0l6.6 8.2z"/><path class="j" d="m368.8 249.5h-6.2v-1h6.2z"/><path class="j" d="m368.8 251.1h-8v-1h8z"/><path class="h" d="m347.7 255.6h-18.5v-34.7l9.2-11.4 9.3 11.4z"/><path class="h" d="m338.4 210.8c-0.2 0-0.4-0.1-0.4-0.4v-3.5c0-0.3 0.2-0.5 0.4-0.5 0.3 0 0.5 0.2 0.5 0.5v3.5c0 0.3-0.2 0.4-0.5 0.4z"/><path class="l" d="m346.4 244.1h-15.5v-20.8h15.5z"/><path class="j" d="m346.4 221.5h-16.1v-1h16.1z"/><path class="j" d="m344.8 219.9l-6.2-7.7-6.1 7.7-0.8-0.6 6.5-8.2c0.2-0.2 0.6-0.2 0.8 0l6.6 8.2z"/><path class="j" d="m346.4 249.5h-6.1v-1h6.1z"/><path class="j" d="m346.4 251.1h-8v-1h8z"/><path class="h" d="m325.3 255.6h-18.5v-34.7l9.2-11.4 9.3 11.4z"/><path class="h" d="m316 210.8c-0.2 0-0.4-0.1-0.4-0.4v-3.5c0-0.3 0.2-0.5 0.4-0.5 0.3 0 0.5 0.2 0.5 0.5v3.5c0 0.3-0.2 0.4-0.5 0.4z"/><path class="l" d="m324 244.1h-15.5v-20.8h15.5z"/><path class="j" d="m324 221.5h-16.1v-1h16.1z"/><path class="j" d="m322.4 219.9l-6.2-7.7-6.1 7.7-0.8-0.6 6.5-8.2c0.2-0.2 0.6-0.2 0.8 0l6.6 8.2z"/><path class="j" d="m324 249.5h-6.1v-1h6.1z"/><path class="j" d="m324 251.1h-8v-1h8z"/><path class="h" d="m302.9 255.6h-18.5v-34.7l9.3-11.4 9.2 11.4z"/><path class="h" d="m293.7 210.8c-0.3 0-0.5-0.1-0.5-0.4v-3.5c0-0.3 0.2-0.5 0.5-0.5 0.2 0 0.4 0.2 0.4 0.5v3.5c0 0.3-0.2 0.4-0.4 0.4z"/><path class="l" d="m301.6 244.1h-15.5v-20.8h15.5z"/><path class="j" d="m301.6 221.5h-16.1v-1h16.1z"/><path class="j" d="m300 219.9l-6.1-7.7-6.2 7.7-0.8-0.6 6.6-8.2c0.2-0.2 0.6-0.2 0.7 0l6.6 8.2z"/><path class="j" d="m301.6 249.5h-6.1v-1h6.1z"/><path class="j" d="m301.6 251.1h-7.9v-1h7.9z"/><path class="i" d="m478.8 110.1h-10.7v-3.1h10.7z"/><path class="i" d="m480.5 138h-14.1v-6.4h14.1z"/><path class="h" d="m481 111.1v25.1h-15.1v-25.1l0.4-0.7 1.5-2.3h11l1.7 2.3z"/><path class="j" d="m481 111.1v0.3h-15.1v-0.3l0.4-0.7h14.2z"/><path class="j" d="m481 133.3v1h-15.1v-1z"/><path class="j" d="m481 113.4v1.4l-15.1 15.1v-1.4z"/><path class="j" d="m481 118.1v1.3l-14.9 14.9-0.2-0.3v-0.9z"/><path class="i" d="m457.3 110.1h-10.7v-3.1h10.7z"/><path class="i" d="m459 138h-14.1v-6.4h14.1z"/><path class="h" d="m459.5 111.1v25.1h-15.1v-25.1l0.4-0.7 1.5-2.3h11l1.7 2.3z"/><path class="j" d="m459.5 111.1v0.3h-15.1v-0.3l0.4-0.7h14.2z"/><path class="j" d="m459.5 133.3v1h-15.1v-1z"/><path class="j" d="m459.5 113.4v1.4l-15.1 15.1v-1.4z"/><path class="j" d="m459.5 118.1v1.3l-14.9 14.9-0.2-0.3v-0.9z"/><path class="i" d="m435.8 110.1h-10.7v-3.1h10.7z"/><path class="i" d="m437.5 138h-14.1v-6.4h14.1z"/><path class="h" d="m438 111.1v25.1h-15.1v-25.1l0.4-0.7 1.5-2.3h11l1.7 2.3z"/><path class="j" d="m438 111.1v0.3h-15.1v-0.3l0.4-0.7h14.2z"/><path class="j" d="m438 133.3v1h-15.1v-1z"/><path class="j" d="m438 113.4v1.4l-15.1 15.1v-1.4z"/><path class="j" d="m438 118.1v1.3l-14.9 14.9-0.2-0.3v-0.9z"/><path class="i" d="m414.3 110.1h-10.7v-3.1h10.7z"/><path class="i" d="m416 138h-14.1v-6.4h14.1z"/><path class="h" d="m416.5 111.1v25.1h-15.1v-25.1l0.4-0.7 1.5-2.3h11l1.7 2.3z"/><path class="j" d="m416.5 111.1v0.3h-15.1v-0.3l0.4-0.7h14.2z"/><path class="j" d="m416.5 133.3v1h-15.1v-1z"/><path class="j" d="m416.5 113.4v1.4l-15.1 15.1v-1.4z"/><path class="j" d="m416.5 118.1v1.3l-14.9 14.9-0.2-0.3v-0.9z"/><path class="i" d="m473.4 168.7h-10.7v-3h10.7z"/><path class="i" d="m475 196.7h-14v-6.4h14z"/><path class="l" d="m475.6 169.7v25.2h-15.1v-25.2l0.4-0.6 1.5-2.4h10.9 0.1l1.7 2.4z"/><path class="j" d="m475.6 169.7v0.3h-15.1v-0.3l0.4-0.6h14.2z"/><path class="j" d="m475.6 192v0.9h-15.1v-0.9z"/><path class="j" d="m475.6 172.1v1.3l-15.1 15.1v-1.3z"/><path class="j" d="m475.6 176.7v1.3l-14.9 14.9-0.2-0.2v-0.9z"/><path class="i" d="m452.5 168.7h-10.7v-3h10.7z"/><path class="i" d="m454.2 196.7h-14.1v-6.4h14.1z"/><path class="l" d="m454.7 169.7v25.2h-15.1v-25.2l0.4-0.6 1.5-2.4h11l1.7 2.4z"/><path class="j" d="m454.7 169.7v0.3h-15.1v-0.3l0.4-0.6h14.2z"/><path class="j" d="m454.7 192v0.9h-15.1v-0.9z"/><path class="j" d="m454.7 172.1v1.3l-15.1 15.1v-1.3z"/><path class="j" d="m454.7 176.7v1.3l-14.9 14.9-0.2-0.2v-0.9z"/><path class="i" d="m433.6 168.7h-10.6v-3h10.6z"/><path class="i" d="m435.3 196.7h-14v-6.4h14z"/><path class="l" d="m435.8 169.7v25.2h-15v-25.2l0.4-0.6 1.5-2.4h10.9l1.8 2.4z"/><path class="j" d="m435.8 169.7v0.3h-15v-0.3l0.4-0.6h14.2z"/><path class="j" d="m435.8 192v0.9h-15v-0.9z"/><path class="j" d="m435.8 172.1v1.3l-15 15.1v-1.3z"/><path class="j" d="m435.8 176.7v1.3l-14.8 14.9-0.2-0.2v-0.9z"/><path class="i" d="m414.3 168.7h-10.7v-3h10.7z"/><path class="i" d="m416 196.7h-14.1v-6.4h14.1z"/><path class="l" d="m416.5 169.7v25.2h-15.1v-25.2l0.4-0.6 1.5-2.4h11l1.7 2.4z"/><path class="j" d="m416.5 169.7v0.3h-15.1v-0.3l0.4-0.6h14.2z"/><path class="j" d="m416.5 192v0.9h-15.1v-0.9z"/><path class="j" d="m416.5 172.1v1.3l-15.1 15.1v-1.3z"/><path class="j" d="m416.5 176.7v1.3l-14.9 14.9-0.2-0.2v-0.9z"/><path class="k" d="m484 255.6h-18.5v-34.7l9.3-11.4 9.2 11.4z"/><path class="k" d="m474.8 210.8c-0.3 0-0.5-0.1-0.5-0.4v-3.5c0-0.3 0.2-0.5 0.5-0.5 0.2 0 0.4 0.2 0.4 0.5v3.5c0 0.3-0.2 0.4-0.4 0.4z"/><path class="l" d="m482.7 244.1h-15.5v-20.8h15.5z"/><path class="j" d="m482.7 221.5h-16.1v-1h16.1z"/><path class="j" d="m481.1 219.9l-6.1-7.7-6.2 7.7-0.8-0.6 6.6-8.2c0.2-0.2 0.6-0.2 0.8 0l6.5 8.2z"/><path class="j" d="m482.7 249.5h-6.1v-1h6.1z"/><path class="j" d="m482.7 251.1h-7.9v-1h7.9z"/><path class="k" d="m461.6 255.6h-18.5v-34.7l9.3-11.4 9.2 11.4z"/><path class="k" d="m452.4 210.8c-0.2 0-0.4-0.1-0.4-0.4v-3.5c0-0.3 0.2-0.5 0.4-0.5 0.2 0 0.4 0.2 0.4 0.5v3.5c0 0.3-0.2 0.4-0.4 0.4z"/><path class="l" d="m460.3 244.1h-15.5v-20.8h15.5z"/><path class="j" d="m460.3 221.5h-16.1v-1h16.1z"/><path class="j" d="m458.8 219.9l-6.2-7.7-6.2 7.7-0.8-0.6 6.6-8.2c0.2-0.2 0.6-0.2 0.8 0l6.5 8.2z"/><path class="j" d="m460.3 249.5h-6.1v-1h6.1z"/><path class="j" d="m460.3 251.1h-7.9v-1h7.9z"/><path class="k" d="m439.3 255.6h-18.5v-34.7l9.2-11.4 9.3 11.4z"/><path class="k" d="m430 210.8c-0.2 0-0.4-0.1-0.4-0.4v-3.5c0-0.3 0.2-0.5 0.4-0.5 0.3 0 0.4 0.2 0.4 0.5v3.5c0 0.3-0.1 0.4-0.4 0.4z"/><path class="l" d="m438 244.1h-15.5v-20.8h15.5z"/><path class="j" d="m438 221.5h-16.2v-1h16.2z"/><path class="j" d="m436.4 219.9l-6.2-7.7-6.2 7.7-0.7-0.6 6.5-8.2c0.2-0.2 0.6-0.2 0.8 0l6.6 8.2z"/><path class="j" d="m438 249.5h-6.2v-1h6.2z"/><path class="j" d="m438 251.1h-8v-1h8z"/><path class="k" d="m416.9 255.6h-18.5v-34.7l9.2-11.4 9.3 11.4z"/><path class="k" d="m407.6 210.8c-0.2 0-0.4-0.1-0.4-0.4v-3.5c0-0.3 0.2-0.5 0.4-0.5 0.3 0 0.5 0.2 0.5 0.5v3.5c0 0.3-0.2 0.4-0.5 0.4z"/><path class="l" d="m415.6 244.1h-15.5v-20.8h15.5z"/><path class="j" d="m415.6 221.5h-16.2v-1h16.2z"/><path class="j" d="m414 219.9l-6.2-7.7-6.2 7.7-0.7-0.6 6.5-8.2c0.2-0.2 0.6-0.2 0.8 0l6.6 8.2z"/><path class="j" d="m415.6 249.5h-6.2v-1h6.2z"/><path class="j" d="m415.6 251.1h-8v-1h8z"/><path class="g" d="m421.3 278.4h-10.3l-1.3-11.4h12.9z"/><path class="l" d="m423.6 267h-14.9v-1.7h14.9z"/><path fill-rule="evenodd" class="j" d="m421 275.6h-9.7v-5.8h9.7zm-8.7-1h7.7v-3.9h-7.7z"/><path class="j" d="m421.9 267.5h-11.5v-0.9h11.5z"/><path class="g" d="m438.9 278.4h-10.2l-1.3-11.4h12.8z"/><path class="l" d="m441.2 267h-14.9v-1.7h14.9z"/><path fill-rule="evenodd" class="j" d="m438.6 275.6h-9.6v-5.8h9.6zm-8.7-1h7.7v-3.9h-7.7z"/><path class="j" d="m439.6 267.5h-11.6v-0.9h11.6z"/><path class="g" d="m456.5 278.4h-10.2l-1.3-11.4h12.8z"/><path class="l" d="m458.8 267h-14.9v-1.7h14.9z"/><path fill-rule="evenodd" class="j" d="m456.2 275.6h-9.6v-5.8h9.6zm-8.7-1h7.7v-3.9h-7.7z"/><path class="j" d="m457.2 267.5h-11.6v-0.9h11.6z"/><path class="g" d="m474.1 278.4h-10.2l-1.3-11.4h12.8z"/><path class="l" d="m476.4 267h-14.9v-1.7h14.9z"/><path fill-rule="evenodd" class="j" d="m473.8 275.6h-9.6v-5.8h9.6zm-8.7-1h7.7v-3.9h-7.7z"/><path class="j" d="m474.8 267.5h-11.6v-0.9h11.6z"/><path class="g" d="m479.7 291.5h-10.2l-1.3-11.4h12.8z"/><path class="l" d="m482 280.1h-14.9v-1.7h14.9z"/><path fill-rule="evenodd" class="j" d="m479.4 288.7h-9.6v-5.8h9.6zm-8.7-1h7.8v-3.9h-7.8z"/><path class="j" d="m480.4 280.6h-11.6v-1h11.6z"/><path class="g" d="m463 291.5h-10.2l-1.3-11.4h12.8z"/><path class="l" d="m465.3 280.1h-14.8v-1.7h14.8z"/><path fill-rule="evenodd" class="j" d="m462.7 288.7h-9.6v-5.8h9.6zm-8.7-1h7.8v-3.9h-7.8z"/><path class="j" d="m463.7 280.6h-11.6v-1h11.6z"/><path class="g" d="m446.3 291.5h-10.2l-1.3-11.4h12.8z"/><path class="l" d="m448.6 280.1h-14.8v-1.7h14.8z"/><path fill-rule="evenodd" class="j" d="m446 288.7h-9.6v-5.8h9.6zm-8.7-1h7.8v-3.9h-7.8z"/><path class="j" d="m447 280.6h-11.6v-1h11.6z"/><path class="g" d="m429.6 291.5h-10.2l-1.3-11.4h12.8z"/><path class="l" d="m432 280.1h-14.9v-1.7h14.9z"/><path fill-rule="evenodd" class="j" d="m429.3 288.7h-9.6v-5.8h9.6zm-8.7-1h7.8v-3.9h-7.8z"/><path class="j" d="m430.3 280.6h-11.6v-1h11.6z"/><path class="g" d="m412.9 291.5h-10.2l-1.3-11.4h12.8z"/><path class="l" d="m415.3 280.1h-14.9v-1.7h14.9z"/><path fill-rule="evenodd" class="j" d="m412.6 288.7h-9.6v-5.8h9.6zm-8.6-1h7.7v-3.9h-7.7z"/><path class="j" d="m413.6 280.6h-11.6v-1h11.6z"/><path class="g" d="m193.3 291.5h-24.1v-10.2h24.1z"/><path class="i" d="m194.1 281.3h-25.7v-2.3h25.7z"/><path class="h" d="m193.3 289.5h-24.1v-6.4h24.1z"/><path class="j" d="m192.7 289.2h-3.4v-1h3.4z"/><path class="j" d="m193.3 282.3h-24.1v-1h24.1z"/><path class="g" d="m225.5 291.5h-24.1v-10.2h24.1z"/><path class="i" d="m226.3 281.3h-25.6v-2.3h25.6z"/><path class="h" d="m225.5 289.5h-24.1v-6.4h24.1z"/><path class="j" d="m224.9 289.2h-3.4v-1h3.4z"/><path class="j" d="m225.5 282.3h-24.1v-1h24.1z"/><path class="g" d="m209.3 278.8h-24.1v-10.2h24.1z"/><path class="i" d="m210.1 268.6h-25.7v-2.3h25.7z"/><path class="h" d="m209.3 276.8h-24.1v-6.4h24.1z"/><path class="j" d="m208.7 276.5h-3.4v-1h3.4z"/><path class="j" d="m209.3 269.6h-24.1v-1h24.1z"/><path class="g" d="m241.4 278.8h-24.1v-10.2h24.1z"/><path class="i" d="m242.2 268.6h-25.7v-2.3h25.7z"/><path class="h" d="m241.4 276.8h-24.1v-6.4h24.1z"/><path class="j" d="m240.8 276.5h-3.4v-1h3.4z"/><path class="j" d="m241.4 269.6h-24.1v-1h24.1z"/><path class="g" d="m257.8 291.5h-24.1v-10.2h24.1z"/><path class="i" d="m258.6 281.3h-25.7v-2.3h25.7z"/><path class="h" d="m257.8 289.5h-24.1v-6.4h24.1z"/><path class="j" d="m257.2 289.2h-3.4v-1h3.4z"/><path class="j" d="m257.8 282.3h-24.1v-1h24.1z"/><path class="i" d="m184.1 227.7h-10.7v-3h10.7z"/><path class="i" d="m185.8 255.6h-14.1v-6.4h14.1z"/><path class="g" d="m186.3 228.7v25.1h-15.1v-25.1l0.4-0.7 1.5-2.3h11l1.7 2.3z"/><path class="j" d="m186.3 228.7v0.3h-15.1v-0.3l0.4-0.7h14.2z"/><path class="j" d="m186.3 250.9v1h-15.1v-1z"/><path class="j" d="m186.3 231.1v1.3l-15.1 15.1v-1.4z"/><path class="j" d="m186.3 235.7v1.3l-14.9 14.9-0.2-0.2v-1z"/><path class="i" d="m207.2 227.7h-10.6v-3h10.6z"/><path class="i" d="m208.9 255.6h-14v-6.4h14z"/><path class="g" d="m209.4 228.7v25.1h-15v-25.1l0.4-0.7 1.5-2.3h10.9l1.8 2.3z"/><path class="j" d="m209.4 228.7v0.3h-15v-0.3l0.4-0.7h14.2z"/><path class="j" d="m209.4 250.9v1h-15v-1z"/><path class="j" d="m209.4 231.1v1.3l-15 15.1v-1.4z"/><path class="j" d="m209.4 235.7v1.3l-14.8 14.9-0.2-0.2v-1z"/><path class="i" d="m230.4 227.7h-10.7v-3h10.7z"/><path class="i" d="m232.1 255.6h-14.1v-6.4h14.1z"/><path class="g" d="m232.6 228.7v25.1h-15.1v-25.1l0.4-0.7 1.5-2.3h11l1.7 2.3z"/><path class="j" d="m232.6 228.7v0.3h-15.1v-0.3l0.4-0.7h14.2z"/><path class="j" d="m232.6 250.9v1h-15.1v-1z"/><path class="j" d="m232.6 231.1v1.3l-15.1 15.1v-1.4z"/><path class="j" d="m232.6 235.7v1.3l-14.9 14.9-0.2-0.2v-1z"/><path class="i" d="m253.5 227.7h-10.6v-3h10.6z"/><path class="i" d="m255.2 255.6h-14v-6.4h14z"/><path class="g" d="m255.8 228.7v25.1h-15.1v-25.1l0.4-0.7 1.5-2.3h10.9l1.8 2.3z"/><path class="j" d="m255.8 228.7v0.3h-15.1v-0.3l0.4-0.7h14.2z"/><path class="j" d="m255.8 250.9v1h-15.1v-1z"/><path class="j" d="m255.8 231.1v1.3l-15.1 15.1v-1.4z"/><path class="j" d="m255.8 235.7v1.3l-14.9 14.9-0.2-0.2v-1z"/><path class="h" d="m172.1 137.4c-1.6-1.3-2.8-3.2-3.2-5.4-0.4-2.6 0.3-5.1 1.8-7 1.2-1.5 1.9-3.4 1.9-5.4v-4.1h10.6v4c0 2.1 0.7 4 1.9 5.6 1.1 1.5 1.8 3.4 1.8 5.4 0 2.8-1.3 5.3-3.3 6.9-0.6 0.5-1.3 0.8-2 0.8h-7.4c-0.8 0-1.5-0.3-2.1-0.8z"/><path class="g" d="m184 115.9h-12.3v-1.7h12.3z"/><ellipse class="g" cx="177.9" cy="127.2" rx="4.3" ry="6.7"/><path fill-rule="evenodd" class="j" d="m177.9 134.5c-2.7 0-4.8-3.2-4.8-7.3 0-4 2.1-7.2 4.8-7.2 2.6 0 4.7 3.2 4.7 7.2 0 4.1-2.1 7.3-4.7 7.3zm0-13.5c-2.1 0-3.8 2.8-3.8 6.2 0 3.5 1.7 6.3 3.8 6.3 2 0 3.7-2.8 3.7-6.3 0-3.4-1.7-6.2-3.7-6.2z"/><path class="h" d="m195.9 137.4c-1.7-1.3-2.8-3.2-3.2-5.4-0.5-2.6 0.3-5.1 1.7-7 1.2-1.5 1.9-3.4 1.9-5.4v-4.1h10.6v4c0 2.1 0.8 4 2 5.6 1.1 1.5 1.8 3.4 1.8 5.4 0 2.8-1.3 5.3-3.3 6.9-0.6 0.5-1.3 0.8-2.1 0.8h-7.4c-0.7 0-1.5-0.3-2-0.8z"/><path class="g" d="m207.8 115.9h-12.4v-1.7h12.4z"/><ellipse class="g" cx="201.6" cy="127.2" rx="4.3" ry="6.7"/><path fill-rule="evenodd" class="j" d="m201.6 134.5c-2.7 0-4.7-3.2-4.7-7.3 0-4 2-7.2 4.7-7.2 2.7 0 4.8 3.2 4.8 7.2 0 4.1-2.1 7.3-4.8 7.3zm0-13.5c-2.1 0-3.7 2.8-3.7 6.2 0 3.5 1.6 6.3 3.7 6.3 2.1 0 3.8-2.8 3.8-6.3 0-3.4-1.7-6.2-3.8-6.2z"/><path class="h" d="m219.6 137.4c-1.6-1.3-2.8-3.2-3.2-5.4-0.4-2.6 0.3-5.1 1.8-7 1.2-1.5 1.9-3.4 1.9-5.4v-4.1h10.6v4c0 2.1 0.7 4 1.9 5.6 1.1 1.5 1.8 3.4 1.8 5.4 0 2.8-1.3 5.3-3.3 6.9-0.6 0.5-1.3 0.8-2 0.8h-7.4c-0.8 0-1.5-0.3-2.1-0.8z"/><path class="g" d="m231.5 115.9h-12.3v-1.7h12.3z"/><ellipse class="g" cx="225.4" cy="127.2" rx="4.3" ry="6.7"/><path fill-rule="evenodd" class="j" d="m225.4 134.5c-2.7 0-4.8-3.2-4.8-7.3 0-4 2.1-7.2 4.8-7.2 2.6 0 4.7 3.2 4.7 7.2 0 4.1-2.1 7.3-4.7 7.3zm0-13.5c-2.1 0-3.8 2.8-3.8 6.2 0 3.5 1.7 6.3 3.8 6.3 2 0 3.7-2.8 3.7-6.3 0-3.4-1.7-6.2-3.7-6.2z"/><path class="h" d="m243.4 137.4c-1.7-1.3-2.8-3.2-3.2-5.4-0.5-2.6 0.3-5.1 1.7-7 1.2-1.5 1.9-3.4 1.9-5.4v-4.1h10.6v4c0 2.1 0.8 4 2 5.6 1.1 1.5 1.8 3.4 1.8 5.4 0 2.8-1.3 5.3-3.3 6.9-0.6 0.5-1.3 0.8-2.1 0.8h-7.4c-0.7 0-1.5-0.3-2-0.8z"/><path class="g" d="m255.3 115.9h-12.4v-1.7h12.4z"/><ellipse class="g" cx="249.1" cy="127.2" rx="4.3" ry="6.7"/><path fill-rule="evenodd" class="j" d="m249.1 134.5c-2.7 0-4.7-3.2-4.7-7.3 0-4 2-7.2 4.7-7.2 2.7 0 4.8 3.2 4.8 7.2 0 4.1-2.1 7.3-4.8 7.3zm0-13.5c-2.1 0-3.7 2.8-3.7 6.2 0 3.5 1.6 6.3 3.7 6.3 2.1 0 3.8-2.8 3.8-6.3 0-3.4-1.7-6.2-3.8-6.2z"/><path class="h" d="m193.5 183.5h-10.2l-1.3-11.4h12.8z"/><path class="l" d="m195.9 172.1h-14.9v-1.7h14.9z"/><path fill-rule="evenodd" class="j" d="m193.2 180.7h-9.6v-5.8h9.6zm-8.6-1h7.7v-3.9h-7.7z"/><path class="j" d="m194.2 172.6h-11.6v-0.9h11.6z"/><path class="h" d="m211.2 183.5h-10.3l-1.3-11.4h12.8z"/><path class="l" d="m213.5 172.1h-14.9v-1.7h14.9z"/><path fill-rule="evenodd" class="j" d="m210.8 180.7h-9.6v-5.8h9.6zm-8.6-1h7.7v-3.9h-7.7z"/><path class="j" d="m211.8 172.6h-11.6v-0.9h11.6z"/><path class="h" d="m228.8 183.5h-10.3l-1.3-11.4h12.9z"/><path class="l" d="m231.1 172.1h-14.9v-1.7h14.9z"/><path fill-rule="evenodd" class="j" d="m228.5 180.7h-9.6v-5.8h9.6zm-8.7-1h7.7v-3.9h-7.7z"/><path class="j" d="m229.4 172.6h-11.5v-0.9h11.5z"/><path class="h" d="m246.4 183.5h-10.2l-1.3-11.4h12.8z"/><path class="l" d="m248.7 172.1h-14.9v-1.7h14.9z"/><path fill-rule="evenodd" class="j" d="m246.1 180.7h-9.6v-5.8h9.6zm-8.7-1h7.7v-3.9h-7.7z"/><path class="j" d="m247.1 172.6h-11.6v-0.9h11.6z"/><path class="h" d="m252 196.6h-10.2l-1.3-11.4h12.8z"/><path class="l" d="m254.3 185.2h-14.9v-1.7h14.9z"/><path fill-rule="evenodd" class="j" d="m251.7 193.8h-9.6v-5.8h9.6zm-8.7-1h7.7v-4h-7.7z"/><path class="j" d="m252.7 185.7h-11.6v-1h11.6z"/><path class="h" d="m235.3 196.6h-10.2l-1.3-11.4h12.8z"/><path class="l" d="m237.6 185.2h-14.9v-1.7h14.9z"/><path fill-rule="evenodd" class="j" d="m235 193.8h-9.6v-5.8h9.6zm-8.7-1h7.7v-4h-7.7z"/><path class="j" d="m236 185.7h-11.6v-1h11.6z"/><path class="h" d="m218.6 196.6h-10.2l-1.3-11.4h12.8z"/><path class="l" d="m220.9 185.2h-14.9v-1.7h14.9z"/><path fill-rule="evenodd" class="j" d="m218.3 193.8h-9.6v-5.8h9.6zm-8.7-1h7.8v-4h-7.8z"/><path class="j" d="m219.3 185.7h-11.6v-1h11.6z"/><path class="h" d="m201.9 196.6h-10.2l-1.3-11.4h12.8z"/><path class="l" d="m204.2 185.2h-14.9v-1.7h14.9z"/><path fill-rule="evenodd" class="j" d="m201.6 193.8h-9.6v-5.8h9.6zm-8.7-1h7.8v-4h-7.8z"/><path class="j" d="m202.6 185.7h-11.6v-1h11.6z"/><path class="h" d="m185.2 196.6h-10.2l-1.3-11.4h12.8z"/><path class="l" d="m187.5 185.2h-14.8v-1.7h14.8z"/><path fill-rule="evenodd" class="j" d="m184.9 193.8h-9.6v-5.8h9.6zm-8.7-1h7.8v-4h-7.8z"/><path class="j" d="m185.9 185.7h-11.6v-1h11.6z"/><path class="i" d="m138.3 227.3h-10.7v-3h10.7z"/><path class="i" d="m140 255.2h-14.1v-6.4h14.1z"/><path class="h" d="m140.5 228.3v25.2h-15.1v-25.2l0.4-0.7 1.5-2.3h11l1.7 2.3z"/><path class="j" d="m140.5 228.3v0.3h-15.1v-0.3l0.4-0.7h14.2z"/><path class="j" d="m140.5 250.5v1h-15.1v-1z"/><path class="j" d="m140.5 230.7v1.3l-15.1 15.1v-1.4z"/><path class="j" d="m140.5 235.3v1.3l-14.9 14.9-0.2-0.2v-0.9z"/><path class="i" d="m116.8 227.3h-10.7v-3h10.7z"/><path class="i" d="m118.5 255.2h-14.1v-6.4h14.1z"/><path class="h" d="m119 228.3v25.2h-15.1v-25.2l0.4-0.7 1.5-2.3h11l1.7 2.3z"/><path class="j" d="m119 228.3v0.3h-15.1v-0.3l0.4-0.7h14.2z"/><path class="j" d="m119 250.5v1h-15.1v-1z"/><path class="j" d="m119 230.7v1.3l-15.1 15.1v-1.4z"/><path class="j" d="m119 235.3v1.3l-14.9 14.9-0.2-0.2v-0.9z"/><path class="i" d="m95.3 227.3h-10.7v-3h10.7z"/><path class="i" d="m97 255.2h-14.1v-6.4h14.1z"/><path class="h" d="m97.5 228.3v25.2h-15.1v-25.2l0.4-0.7 1.5-2.3h11l1.7 2.3z"/><path class="j" d="m97.5 228.3v0.3h-15.1v-0.3l0.4-0.7h14.2z"/><path class="j" d="m97.5 250.5v1h-15.1v-1z"/><path class="j" d="m97.5 230.7v1.3l-15.1 15.1v-1.4z"/><path class="j" d="m97.5 235.3v1.3l-14.9 14.9-0.2-0.2v-0.9z"/><path class="i" d="m73.8 227.3h-10.7v-3h10.7z"/><path class="i" d="m75.5 255.2h-14.1v-6.4h14.1z"/><path class="h" d="m76 228.3v25.2h-15.1v-25.2l0.4-0.7 1.5-2.3h11l1.7 2.3z"/><path class="j" d="m76 228.3v0.3h-15.1v-0.3l0.4-0.7h14.2z"/><path class="j" d="m76 250.5v1h-15.1v-1z"/><path class="j" d="m76 230.7v1.3l-15.1 15.1v-1.4z"/><path class="j" d="m76 235.3v1.3l-14.9 14.9-0.2-0.2v-0.9z"/><path class="i" d="m138.3 110h-10.7v-3h10.7z"/><path class="i" d="m140 138h-14.1v-6.4h14.1z"/><path class="h" d="m140.5 111v25.2h-15.1v-25.2l0.4-0.6 1.5-2.4h11l1.7 2.4z"/><path class="j" d="m140.5 111v0.3h-15.1v-0.3l0.4-0.6h14.2z"/><path class="j" d="m140.5 133.3v0.9h-15.1v-0.9z"/><path class="j" d="m140.5 113.4v1.3l-15.1 15.1v-1.3z"/><path class="j" d="m140.5 118v1.4l-14.9 14.8-0.2-0.2v-0.9z"/><path class="i" d="m116.8 110h-10.7v-3h10.7z"/><path class="i" d="m118.5 138h-14.1v-6.4h14.1z"/><path class="h" d="m119 111v25.2h-15.1v-25.2l0.4-0.6 1.5-2.4h11l1.7 2.4z"/><path class="j" d="m119 111v0.3h-15.1v-0.3l0.4-0.6h14.2z"/><path class="j" d="m119 133.3v0.9h-15.1v-0.9z"/><path class="j" d="m119 113.4v1.3l-15.1 15.1v-1.3z"/><path class="j" d="m119 118v1.4l-14.9 14.8-0.2-0.2v-0.9z"/><path class="i" d="m95.3 110h-10.7v-3h10.7z"/><path class="i" d="m97 138h-14.1v-6.4h14.1z"/><path class="h" d="m97.5 111v25.2h-15.1v-25.2l0.4-0.6 1.5-2.4h11l1.7 2.4z"/><path class="j" d="m97.5 111v0.3h-15.1v-0.3l0.4-0.6h14.2z"/><path class="j" d="m97.5 133.3v0.9h-15.1v-0.9z"/><path class="j" d="m97.5 113.4v1.3l-15.1 15.1v-1.3z"/><path class="j" d="m97.5 118v1.4l-14.9 14.8-0.2-0.2v-0.9z"/><path class="i" d="m73.8 110h-10.7v-3h10.7z"/><path class="i" d="m75.5 138h-14.1v-6.4h14.1z"/><path class="h" d="m76 111v25.2h-15.1v-25.2l0.4-0.6 1.5-2.4h11l1.7 2.4z"/><path class="j" d="m76 111v0.3h-15.1v-0.3l0.4-0.6h14.2z"/><path class="j" d="m76 133.3v0.9h-15.1v-0.9z"/><path class="j" d="m76 113.4v1.3l-15.1 15.1v-1.3z"/><path class="j" d="m76 118v1.4l-14.9 14.8-0.2-0.2v-0.9z"/><path class="k" d="m80.7 278.4h-10.2l-1.3-11.4h12.8z"/><path class="l" d="m83.1 267h-14.9v-1.7h14.9z"/><path fill-rule="evenodd" class="j" d="m80.4 275.6h-9.6v-5.8h9.6zm-8.6-1h7.7v-3.9h-7.7z"/><path class="j" d="m81.4 267.5h-11.6v-0.9h11.6z"/><path class="k" d="m98.3 278.4h-10.2l-1.3-11.4h12.8z"/><path class="l" d="m100.7 267h-14.9v-1.7h14.9z"/><path fill-rule="evenodd" class="j" d="m98 275.6h-9.6v-5.8h9.6zm-8.6-1h7.7v-3.9h-7.7z"/><path class="j" d="m99 267.5h-11.6v-0.9h11.6z"/><path class="k" d="m116 278.4h-10.3l-1.3-11.4h12.9z"/><path class="l" d="m118.3 267h-14.9v-1.7h14.9z"/><path fill-rule="evenodd" class="j" d="m115.6 275.6h-9.6v-5.8h9.6zm-8.6-1h7.7v-3.9h-7.7z"/><path class="j" d="m116.6 267.5h-11.5v-0.9h11.5z"/><path class="k" d="m133.6 278.4h-10.3l-1.2-11.4h12.8z"/><path class="l" d="m135.9 267h-14.9v-1.7h14.9z"/><path fill-rule="evenodd" class="j" d="m133.3 275.6h-9.6v-5.8h9.6zm-8.7-1h7.7v-3.9h-7.7z"/><path class="j" d="m134.2 267.5h-11.5v-0.9h11.5z"/><path class="k" d="m139.2 291.5h-10.2l-1.3-11.4h12.8z"/><path class="l" d="m141.5 280.1h-14.9v-1.7h14.9z"/><path fill-rule="evenodd" class="j" d="m138.9 288.7h-9.6v-5.8h9.6zm-8.7-1h7.7v-3.9h-7.7z"/><path class="j" d="m139.9 280.6h-11.6v-1h11.6z"/><path class="k" d="m122.5 291.5h-10.2l-1.3-11.4h12.8z"/><path class="l" d="m124.8 280.1h-14.9v-1.7h14.9z"/><path fill-rule="evenodd" class="j" d="m122.2 288.7h-9.6v-5.8h9.6zm-8.7-1h7.7v-3.9h-7.7z"/><path class="j" d="m123.2 280.6h-11.6v-1h11.6z"/><path class="k" d="m105.8 291.5h-10.2l-1.3-11.4h12.8z"/><path class="l" d="m108.1 280.1h-14.9v-1.7h14.9z"/><path fill-rule="evenodd" class="j" d="m105.5 288.7h-9.6v-5.8h9.6zm-8.7-1h7.7v-3.9h-7.7z"/><path class="j" d="m106.5 280.6h-11.6v-1h11.6z"/><path class="k" d="m89.1 291.5h-10.2l-1.3-11.4h12.8z"/><path class="l" d="m91.4 280.1h-14.9v-1.7h14.9z"/><path fill-rule="evenodd" class="j" d="m88.8 288.7h-9.6v-5.8h9.6zm-8.7-1h7.8v-3.9h-7.8z"/><path class="j" d="m89.8 280.6h-11.6v-1h11.6z"/><path class="k" d="m72.4 291.5h-10.2l-1.3-11.4h12.8z"/><path class="l" d="m74.7 280.1h-14.9v-1.7h14.9z"/><path fill-rule="evenodd" class="j" d="m72.1 288.7h-9.6v-5.8h9.6zm-8.7-1h7.8v-3.9h-7.8z"/><path class="j" d="m73.1 280.6h-11.6v-1h11.6z"/><path class="g" d="m80.7 183.8h-10.2l-1.3-11.4h12.8z"/><path class="l" d="m83.1 172.4h-14.9v-1.7h14.9z"/><path fill-rule="evenodd" class="j" d="m80.4 181h-9.6v-5.9h9.6zm-8.6-0.9h7.7v-4h-7.7z"/><path class="j" d="m81.4 172.9h-11.6v-1h11.6z"/><path class="g" d="m98.3 183.8h-10.2l-1.3-11.4h12.8z"/><path class="l" d="m100.7 172.4h-14.9v-1.7h14.9z"/><path fill-rule="evenodd" class="j" d="m98 181h-9.6v-5.9h9.6zm-8.6-0.9h7.7v-4h-7.7z"/><path class="j" d="m99 172.9h-11.6v-1h11.6z"/><path class="g" d="m116 183.8h-10.3l-1.3-11.4h12.9z"/><path class="l" d="m118.3 172.4h-14.9v-1.7h14.9z"/><path fill-rule="evenodd" class="j" d="m115.6 181h-9.6v-5.9h9.6zm-8.6-0.9h7.7v-4h-7.7z"/><path class="j" d="m116.6 172.9h-11.5v-1h11.5z"/><path class="g" d="m133.6 183.8h-10.3l-1.2-11.4h12.8z"/><path class="l" d="m135.9 172.4h-14.9v-1.7h14.9z"/><path fill-rule="evenodd" class="j" d="m133.3 181h-9.6v-5.9h9.6zm-8.7-0.9h7.7v-4h-7.7z"/><path class="j" d="m134.2 172.9h-11.5v-1h11.5z"/><path class="g" d="m139.2 196.8h-10.2l-1.3-11.3h12.8z"/><path class="l" d="m141.5 185.5h-14.9v-1.7h14.9z"/><path fill-rule="evenodd" class="j" d="m138.9 194.1h-9.6v-5.9h9.6zm-8.7-0.9h7.7v-4h-7.7z"/><path class="j" d="m139.9 185.9h-11.6v-0.9h11.6z"/><path class="g" d="m122.5 196.8h-10.2l-1.3-11.3h12.8z"/><path class="l" d="m124.8 185.5h-14.9v-1.7h14.9z"/><path fill-rule="evenodd" class="j" d="m122.2 194.1h-9.6v-5.9h9.6zm-8.7-0.9h7.7v-4h-7.7z"/><path class="j" d="m123.2 185.9h-11.6v-0.9h11.6z"/><path class="g" d="m105.8 196.8h-10.2l-1.3-11.3h12.8z"/><path class="l" d="m108.1 185.5h-14.9v-1.7h14.9z"/><path fill-rule="evenodd" class="j" d="m105.5 194.1h-9.6v-5.9h9.6zm-8.7-0.9h7.7v-4h-7.7z"/><path class="j" d="m106.5 185.9h-11.6v-0.9h11.6z"/><path class="g" d="m89.1 196.8h-10.2l-1.3-11.3h12.8z"/><path class="l" d="m91.4 185.5h-14.9v-1.7h14.9z"/><path fill-rule="evenodd" class="j" d="m88.8 194.1h-9.6v-5.9h9.6zm-8.7-0.9h7.8v-4h-7.8z"/><path class="j" d="m89.8 185.9h-11.6v-0.9h11.6z"/><path class="g" d="m72.4 196.8h-10.2l-1.3-11.3h12.8z"/><path class="l" d="m74.7 185.5h-14.9v-1.7h14.9z"/><path fill-rule="evenodd" class="j" d="m72.1 194.1h-9.6v-5.9h9.6zm-8.7-0.9h7.8v-4h-7.8z"/><path class="j" d="m73.1 185.9h-11.6v-0.9h11.6z"/><path class="m" d="m346.8 410.6h-346.3v-282.9h346.3z"/><path class="n" d="m358.3 410.6h-357.3v-38.8h357.3z"/><path class="n" d="m358.3 132.7h-357.8v-10.1h357.8z"/><path class="n" d="m358.3 198.6h-357.8v-10.1h357.8z"/><path class="n" d="m358.3 264.5h-357.8v-10.1h357.8z"/><path class="n" d="m358.3 330.4h-357.8v-10.1h357.8z"/><path class="h" d="m15.2 348.6h3.2c3.3 0 6 2.7 6 6v16.8c0 0.2-0.2 0.4-0.5 0.4h-14.3c-0.2 0-0.4-0.2-0.4-0.4v-16.8c0-3.3 2.7-6 6-6z"/><path class="h" d="m19.7 350.5h-5.8v-3.8h5.8z"/><path class="h" d="m20.7 347h-7.8v-1.6h7.8z"/><circle class="g" cx="16.8" cy="360.6" r="4.4"/><path fill-rule="evenodd" class="j" d="m16.8 365.5c-2.7 0-4.9-2.2-4.9-4.9 0-2.7 2.2-4.9 4.9-4.9 2.7 0 4.9 2.2 4.9 4.9 0 2.7-2.2 4.9-4.9 4.9zm0-8.8c-2.1 0-3.9 1.8-3.9 3.9 0 2.1 1.8 3.9 3.9 3.9 2.1 0 3.9-1.8 3.9-3.9 0-2.1-1.8-3.9-3.9-3.9z"/><path class="j" d="m19.7 348h-5.8v-1h5.8z"/><path class="j" d="m23.3 367.2h-2.6v-1h2.6z"/><path class="j" d="m23.3 368.9h-5.2v-1h5.2z"/><path class="h" d="m34.7 348.6h3.2c3.3 0 6 2.7 6 6v16.8c0 0.2-0.2 0.4-0.4 0.4h-14.4c-0.2 0-0.4-0.2-0.4-0.4v-16.8c0-3.3 2.7-6 6-6z"/><path class="h" d="m39.2 350.5h-5.8v-3.8h5.8z"/><path class="h" d="m40.2 347h-7.8v-1.6h7.8z"/><circle class="g" cx="36.3" cy="360.6" r="4.4"/><path fill-rule="evenodd" class="j" d="m36.3 365.5c-2.7 0-4.9-2.2-4.9-4.9 0-2.7 2.2-4.9 4.9-4.9 2.7 0 4.9 2.2 4.9 4.9 0 2.7-2.2 4.9-4.9 4.9zm0-8.8c-2.1 0-3.9 1.8-3.9 3.9 0 2.1 1.8 3.9 3.9 3.9 2.1 0 3.9-1.8 3.9-3.9 0-2.1-1.8-3.9-3.9-3.9z"/><path class="j" d="m39.2 348h-5.8v-1h5.8z"/><path class="j" d="m42.8 367.2h-2.6v-1h2.6z"/><path class="j" d="m42.8 368.9h-5.2v-1h5.2z"/><path class="h" d="m54.2 348.6h3.2c3.3 0 6 2.7 6 6v16.8c0 0.2-0.2 0.4-0.4 0.4h-14.3c-0.3 0-0.5-0.2-0.5-0.4v-16.8c0-3.3 2.7-6 6-6z"/><path class="h" d="m58.7 350.5h-5.8v-3.8h5.8z"/><path class="h" d="m59.7 347h-7.8v-1.6h7.8z"/><circle class="g" cx="55.8" cy="360.6" r="4.4"/><path fill-rule="evenodd" class="j" d="m55.8 365.5c-2.7 0-4.9-2.2-4.9-4.9 0-2.7 2.2-4.9 4.9-4.9 2.7 0 4.9 2.2 4.9 4.9 0 2.7-2.2 4.9-4.9 4.9zm0-8.8c-2.1 0-3.9 1.8-3.9 3.9 0 2.1 1.8 3.9 3.9 3.9 2.1 0 3.9-1.8 3.9-3.9 0-2.1-1.8-3.9-3.9-3.9z"/><path class="j" d="m58.7 348h-5.8v-1h5.8z"/><path class="j" d="m62.3 367.2h-2.6v-1h2.6z"/><path class="j" d="m62.3 368.9h-5.2v-1h5.2z"/><path class="g" d="m73.8 348.6h3.1c3.3 0 6 2.7 6 6v16.8c0 0.2-0.2 0.4-0.4 0.4h-14.3c-0.3 0-0.5-0.2-0.5-0.4v-16.8c0-3.3 2.7-6 6.1-6z"/><path class="g" d="m78.3 350.5h-5.9v-3.8h5.9z"/><path class="g" d="m79.2 347h-7.8v-1.6h7.8z"/><circle class="h" cx="75.3" cy="360.6" r="4.4"/><path fill-rule="evenodd" class="j" d="m75.3 365.5c-2.7 0-4.8-2.2-4.8-4.9 0-2.7 2.1-4.9 4.8-4.9 2.7 0 4.9 2.2 4.9 4.9 0 2.7-2.2 4.9-4.9 4.9zm0-8.8c-2.1 0-3.8 1.8-3.8 3.9 0 2.1 1.7 3.9 3.8 3.9 2.2 0 3.9-1.8 3.9-3.9 0-2.1-1.7-3.9-3.9-3.9z"/><path class="j" d="m78.3 348h-5.9v-1h5.9z"/><path class="j" d="m81.9 367.2h-2.7v-1h2.7z"/><path class="j" d="m81.9 368.9h-5.3v-1h5.3z"/><path class="g" d="m93.3 348.6h3.1c3.3 0 6 2.7 6 6v16.8c0 0.2-0.2 0.4-0.4 0.4h-14.3c-0.3 0-0.5-0.2-0.5-0.4v-16.8c0-3.3 2.7-6 6.1-6z"/><path class="g" d="m97.8 350.5h-5.9v-3.8h5.9z"/><path class="g" d="m98.7 347h-7.8v-1.6h7.8z"/><circle class="h" cx="94.8" cy="360.6" r="4.4"/><path fill-rule="evenodd" class="j" d="m94.8 365.5c-2.6 0-4.8-2.2-4.8-4.9 0-2.7 2.2-4.9 4.8-4.9 2.7 0 4.9 2.2 4.9 4.9 0 2.7-2.2 4.9-4.9 4.9zm0-8.8c-2.1 0-3.8 1.8-3.8 3.9 0 2.1 1.7 3.9 3.8 3.9 2.2 0 3.9-1.8 3.9-3.9 0-2.1-1.7-3.9-3.9-3.9z"/><path class="j" d="m97.8 348h-5.9v-1h5.9z"/><path class="j" d="m101.4 367.2h-2.7v-1h2.7z"/><path class="j" d="m101.4 368.9h-5.3v-1h5.3z"/><path class="g" d="m112.8 348.6h3.1c3.4 0 6.1 2.7 6.1 6v16.8c0 0.2-0.2 0.4-0.5 0.4h-14.3c-0.3 0-0.5-0.2-0.5-0.4v-16.8c0-3.3 2.7-6 6.1-6z"/><path class="g" d="m117.3 350.5h-5.9v-3.8h5.9z"/><path class="g" d="m118.2 347h-7.7v-1.6h7.7z"/><circle class="h" cx="114.4" cy="360.6" r="4.4"/><path fill-rule="evenodd" class="j" d="m114.4 365.5c-2.7 0-4.9-2.2-4.9-4.9 0-2.7 2.2-4.9 4.9-4.9 2.6 0 4.8 2.2 4.8 4.9 0 2.7-2.2 4.9-4.8 4.9zm0-8.8c-2.2 0-3.9 1.8-3.9 3.9 0 2.1 1.7 3.9 3.9 3.9 2.1 0 3.8-1.8 3.8-3.9 0-2.1-1.7-3.9-3.8-3.9z"/><path class="j" d="m117.3 348h-5.9v-1h5.9z"/><path class="j" d="m120.9 367.2h-2.7v-1h2.7z"/><path class="j" d="m120.9 368.9h-5.3v-1h5.3z"/><path class="h" d="m293.5 342.2v26.6h-29.5v-26.6z"/><path class="h" d="m294.1 342.2h-30.7v-2.9h30.7z"/><path class="h" d="m294.1 371.7h-30.7v-2.9h30.7z"/><path class="i" d="m293.5 344.2v5.7l-14.7 14.3-5.4-4-8 7.9h-1.4v-4l8.5-8.6 5.7 3.9z"/><path class="j" d="m293.5 343.2h-29.4v-1h29.4z"/><path class="j" d="m293.5 368.6h-29.4v-1h29.4z"/><path class="j" d="m293.5 343.5v1.4l-15 14.9c-0.2 0.1-0.4 0.2-0.6 0l-5.4-3.7-8.5 8.7v-1.4l8.1-8.3c0.2-0.2 0.5-0.2 0.7-0.1l5.3 3.8z"/><path class="j" d="m293.5 349.2v1.4l-14.4 14c-0.2 0.2-0.4 0.2-0.6 0l-5.1-3.7-7.6 7.6-0.7-0.7 8-8c0.1-0.1 0.4-0.1 0.6 0l5 3.8z"/><path class="h" d="m332.9 342.2v26.6h-29.5v-26.6z"/><path class="h" d="m333.5 342.2h-30.7v-2.9h30.7z"/><path class="h" d="m333.5 371.7h-30.7v-2.9h30.7z"/><path class="i" d="m332.9 344.2v5.7l-14.7 14.3-5.4-4-8 7.9h-1.4v-4l8.5-8.6 5.7 3.9z"/><path class="j" d="m332.9 343.2h-29.5v-1h29.5z"/><path class="j" d="m332.9 368.6h-29.5v-1h29.5z"/><path class="j" d="m332.9 343.5v1.4l-15 14.9c-0.2 0.1-0.4 0.2-0.6 0l-5.4-3.7-8.5 8.7v-1.4l8.1-8.3c0.2-0.2 0.5-0.2 0.7-0.1l5.3 3.8z"/><path class="j" d="m332.9 349.2v1.4l-14.4 14c-0.2 0.2-0.4 0.2-0.6 0l-5.1-3.7-7.6 7.6-0.7-0.7 8-8c0.1-0.1 0.4-0.1 0.6 0l5 3.8z"/><path class="o" d="m150.8 371.9h-19.7l-2.5-21.9h24.7z"/><path class="l" d="m155.3 350h-28.7v-3.3h28.7z"/><path class="j" d="m148.6 356.6h-15.2v-1h15.2z"/><path class="j" d="m147.1 360.1h-12.3v-1h12.3z"/><path class="j" d="m145.6 363.5h-9.2v-1h9.2z"/><path class="o" d="m183.5 371.9h-19.7l-2.5-21.9h24.7z"/><path class="l" d="m188 350h-28.7v-3.3h28.7z"/><path class="j" d="m181.3 356.6h-15.3v-1h15.3z"/><path class="j" d="m179.8 360.1h-12.3v-1h12.3z"/><path class="j" d="m178.2 363.5h-9.2v-1h9.2z"/><path class="o" d="m216.1 371.9h-19.7l-2.5-21.9h24.7z"/><path class="l" d="m220.6 350h-28.7v-3.3h28.7z"/><path class="j" d="m213.9 356.6h-15.2v-1h15.2z"/><path class="j" d="m212.4 360.1h-12.3v-1h12.3z"/><path class="j" d="m210.9 363.5h-9.2v-1h9.2z"/><path class="o" d="m248.8 371.9h-19.7l-2.5-21.9h24.7z"/><path class="l" d="m253.3 350h-28.7v-3.3h28.7z"/><path class="j" d="m246.6 356.6h-15.3v-1h15.3z"/><path class="j" d="m245.1 360.1h-12.3v-1h12.3z"/><path class="j" d="m243.5 363.5h-9.2v-1h9.2z"/><path class="g" d="m132 188.5h-32.3c-1.1 0-1.9-1-1.7-2l1.2-8 0.1-1 1-6.6 0.2-1 1.2-8c0.1-0.8 0.8-1.4 1.6-1.4h25.1c0.8 0 1.5 0.6 1.7 1.4l1.2 8 0.1 1 1 6.6 0.1 0.5v0.5l1.2 8c0.2 1-0.6 2-1.7 2z"/><path class="g" d="m108.4 161.7l-2.4-6.3c0-0.2 0.1-0.4 0.3-0.5q0-0.1 0.1-0.1h0.1c3.1-0.4 6.2-0.6 9.4-0.6 3.1 0 6.2 0.2 9.4 0.6 0.3 0.1 0.4 0.3 0.4 0.6q0 0 0 0.1l-3.4 6.3c-0.2 0.2-0.4 0.3-0.7 0.1-0.2-0.1-0.3-0.3-0.1-0.6l3.4-6.2 0.4 0.6c-3.2 0.5-6.3 0.6-9.4 0.6-3.2 0-6.3-0.1-9.4-0.6l0.4-0.6 2.3 6.3c0.1 0.2 0 0.5-0.2 0.6-0.3 0.1-0.5-0.1-0.6-0.3z"/><path class="i" d="m132.5 178h-10.6c-0.9 3.2-3.3 5.5-6 5.5-2.8 0-5.2-2.3-6.1-5.5h-10.5v-0.5l1-6.6 0.1-0.5h9.9c1.2-2.4 3.2-4.1 5.6-4.1 2.3 0 4.3 1.7 5.5 4.1h9.9l0.1 0.5 1 6.6z"/><path class="g" d="m89.6 188.5h-32.4c-1.1 0-1.9-1-1.7-2l1.2-8 0.1-1 1-6.6 0.2-1 1.2-8c0.1-0.8 0.8-1.4 1.7-1.4h25c0.8 0 1.5 0.6 1.7 1.4l1.2 8 0.1 1 1 6.6 0.1 0.5 0.1 0.5 1.2 8c0.1 1-0.7 2-1.7 2z"/><path class="g" d="m65.9 161.7l-2.3-6.3c-0.1-0.2 0-0.4 0.2-0.5q0.1-0.1 0.1-0.1h0.1c3.1-0.4 6.2-0.6 9.4-0.6 3.1 0 6.2 0.2 9.4 0.6 0.3 0.1 0.5 0.3 0.4 0.6q0 0 0 0.1l-3.4 6.3c-0.1 0.2-0.4 0.3-0.6 0.1-0.3-0.1-0.3-0.3-0.2-0.6l3.4-6.2 0.4 0.6c-3.2 0.5-6.3 0.6-9.4 0.6-3.2 0-6.3-0.1-9.4-0.6l0.4-0.6 2.3 6.3c0.1 0.2 0 0.5-0.2 0.6-0.3 0.1-0.5-0.1-0.6-0.3z"/><path class="i" d="m90 178h-10.6c-0.9 3.2-3.3 5.5-6 5.5-2.8 0-5.1-2.3-6.1-5.5h-10.5v-0.5l1-6.6 0.1-0.5h10c1.1-2.4 3.1-4.1 5.5-4.1 2.3 0 4.4 1.7 5.5 4.1h9.9l0.1 0.5 1 6.6z"/><path class="g" d="m47.1 188.5h-32.4c-1 0-1.8-1-1.7-2l1.2-8 0.2-1 0.9-6.6 0.2-1 1.2-8c0.1-0.8 0.8-1.4 1.7-1.4h25c0.8 0 1.6 0.6 1.7 1.4l1.2 8 0.1 1 1 6.6 0.1 0.5 0.1 0.5 1.2 8c0.1 1-0.7 2-1.7 2z"/><path class="g" d="m23.4 161.7l-2.3-6.3c-0.1-0.2 0-0.4 0.2-0.5q0.1-0.1 0.1-0.1h0.1c3.1-0.4 6.3-0.6 9.4-0.6 3.1 0 6.3 0.2 9.4 0.6h0.1c0.2 0.1 0.4 0.3 0.3 0.6q0 0 0 0.1l-3.4 6.3c-0.1 0.2-0.4 0.3-0.6 0.1-0.2-0.1-0.3-0.3-0.2-0.6l3.4-6.2 0.4 0.6c-3.1 0.5-6.3 0.6-9.4 0.6-3.1 0-6.3-0.1-9.4-0.6l0.4-0.6 2.4 6.3c0 0.2-0.1 0.5-0.3 0.6-0.2 0.1-0.5-0.1-0.6-0.3z"/><path class="i" d="m47.5 178h-10.6c-0.9 3.2-3.3 5.5-6 5.5-2.8 0-5.1-2.3-6.1-5.5h-10.5l0.1-0.5 0.9-6.6 0.1-0.5h10c1.1-2.4 3.2-4.1 5.5-4.1 2.3 0 4.4 1.7 5.5 4.1h10v0.5l1 6.6z"/><path class="k" d="m333.1 188.1h-16v-38q0-0.5 0.3-0.8l4.1-4.9h7.2l4.1 4.9q0.3 0.3 0.3 0.8z"/><path class="p" d="m329.5 144.4h-8.8c-0.2 0-0.4-0.2-0.4-0.4v-1.7c0-0.2 0.2-0.4 0.4-0.4h8.8c0.2 0 0.4 0.2 0.4 0.4v1.7c0 0.2-0.2 0.4-0.4 0.4z"/><path class="o" d="m331.6 185.3h-12.9v-35.2h12.9z"/><path class="j" d="m328.7 144.9h-7.2v-1h7.2z"/><path class="j" d="m330.8 184.4h-4v-1h4z"/><path class="j" d="m330.2 182h-1.9v-1h1.9z"/><path class="k" d="m310.6 188.1h-16v-38q0-0.5 0.3-0.8l4.1-4.9h7.2l4.1 4.9q0.3 0.3 0.3 0.8z"/><path class="p" d="m307 144.4h-8.8c-0.2 0-0.4-0.2-0.4-0.4v-1.7c0-0.2 0.2-0.4 0.4-0.4h8.8c0.2 0 0.4 0.2 0.4 0.4v1.7c0 0.2-0.2 0.4-0.4 0.4z"/><path class="o" d="m309.1 185.3h-12.9v-35.2h12.9z"/><path class="j" d="m306.2 144.9h-7.2v-1h7.2z"/><path class="j" d="m308.3 184.4h-4v-1h4z"/><path class="j" d="m307.7 182h-1.9v-1h1.9z"/><path class="k" d="m288.1 188.1h-16v-38q0-0.5 0.3-0.8l4.1-4.9h7.2l4.1 4.9q0.3 0.3 0.3 0.8z"/><path class="p" d="m284.5 144.4h-8.8c-0.2 0-0.4-0.2-0.4-0.4v-1.7c0-0.2 0.2-0.4 0.4-0.4h8.8c0.2 0 0.4 0.2 0.4 0.4v1.7c0 0.2-0.2 0.4-0.4 0.4z"/><path class="o" d="m286.6 185.3h-12.9v-35.2h12.9z"/><path class="j" d="m283.7 144.9h-7.2v-1h7.2z"/><path class="j" d="m285.8 184.4h-4v-1h4z"/><path class="j" d="m285.2 182h-1.9v-1h1.9z"/><path class="o" d="m268 188.1h-16v-38q0-0.5 0.2-0.8l4.2-4.9h7.1l4.2 4.9q0.3 0.3 0.3 0.8z"/><path class="p" d="m264.3 144.4h-8.7c-0.3 0-0.4-0.2-0.4-0.4v-1.7c0-0.2 0.1-0.4 0.4-0.4h8.7c0.3 0 0.5 0.2 0.5 0.4v1.7c0 0.2-0.2 0.4-0.5 0.4z"/><path class="l" d="m266.4 185.3h-12.9v-35.2h12.9z"/><path class="j" d="m263.5 144.9h-7.1v-1h7.1z"/><path class="j" d="m265.6 184.4h-4v-1h4z"/><path class="j" d="m265 182h-1.9v-1h1.9z"/><path class="o" d="m245.5 188.1h-16v-38q0-0.5 0.2-0.8l4.2-4.9h7.1l4.2 4.9q0.3 0.3 0.3 0.8z"/><path class="p" d="m241.8 144.4h-8.7c-0.3 0-0.4-0.2-0.4-0.4v-1.7c0-0.2 0.1-0.4 0.4-0.4h8.7c0.3 0 0.5 0.2 0.5 0.4v1.7c0 0.2-0.2 0.4-0.5 0.4z"/><path class="l" d="m243.9 185.3h-12.9v-35.2h12.9z"/><path class="j" d="m241 144.9h-7.1v-1h7.1z"/><path class="j" d="m243.1 184.4h-4v-1h4z"/><path class="j" d="m242.5 182h-1.9v-1h1.9z"/><path class="o" d="m223 188.1h-16v-38q0-0.5 0.2-0.8l4.2-4.9h7.1l4.2 4.9q0.3 0.3 0.3 0.8z"/><path class="p" d="m219.3 144.4h-8.7c-0.3 0-0.4-0.2-0.4-0.4v-1.7c0-0.2 0.1-0.4 0.4-0.4h8.7c0.3 0 0.5 0.2 0.5 0.4v1.7c0 0.2-0.2 0.4-0.5 0.4z"/><path class="l" d="m221.4 185.3h-12.9v-35.2h12.9z"/><path class="j" d="m218.5 144.9h-7.1v-1h7.1z"/><path class="j" d="m220.6 184.4h-4v-1h4z"/><path class="j" d="m220 182h-1.9v-1h1.9z"/><path class="l" d="m202.8 188.1h-16v-38q0-0.5 0.3-0.8l4.1-4.9h7.2l4.1 4.9q0.3 0.3 0.3 0.8z"/><path class="p" d="m199.2 144.4h-8.8c-0.2 0-0.4-0.2-0.4-0.4v-1.7c0-0.2 0.2-0.4 0.4-0.4h8.8c0.2 0 0.4 0.2 0.4 0.4v1.7c0 0.2-0.2 0.4-0.4 0.4z"/><path class="k" d="m201.2 185.3h-12.9v-35.2h12.9z"/><path class="j" d="m198.4 144.9h-7.2v-1h7.2z"/><path class="j" d="m200.5 184.4h-4v-1h4z"/><path class="j" d="m199.9 182h-1.9v-1h1.9z"/><path class="l" d="m180.3 188.1h-16v-38q0-0.5 0.3-0.8l4.1-4.9h7.2l4.1 4.9q0.3 0.3 0.3 0.8z"/><path class="p" d="m176.7 144.4h-8.8c-0.2 0-0.4-0.2-0.4-0.4v-1.7c0-0.2 0.2-0.4 0.4-0.4h8.8c0.2 0 0.4 0.2 0.4 0.4v1.7c0 0.2-0.2 0.4-0.4 0.4z"/><path class="k" d="m178.7 185.3h-12.9v-35.2h12.9z"/><path class="j" d="m175.9 144.9h-7.2v-1h7.2z"/><path class="j" d="m178 184.4h-4v-1h4z"/><path class="j" d="m177.4 182h-1.9v-1h1.9z"/><path class="l" d="m157.8 188.1h-16v-38q0-0.5 0.3-0.8l4.1-4.9h7.2l4.1 4.9q0.3 0.3 0.3 0.8z"/><path class="p" d="m154.2 144.4h-8.8c-0.2 0-0.4-0.2-0.4-0.4v-1.7c0-0.2 0.2-0.4 0.4-0.4h8.8c0.2 0 0.4 0.2 0.4 0.4v1.7c0 0.2-0.2 0.4-0.4 0.4z"/><path class="k" d="m156.2 185.3h-12.9v-35.2h12.9z"/><path class="j" d="m153.4 144.9h-7.2v-1h7.2z"/><path class="j" d="m155.5 184.4h-4v-1h4z"/><path class="j" d="m154.9 182h-1.9v-1h1.9z"/><path class="l" d="m80.9 254.6h-36.8l3-27.1v-4.2h30.8v4.2z"/><path class="j" d="m77 227h-28.7v-1h28.7z"/><path class="j" d="m51 251.9h-4.9v-1h4.9z"/><path class="j" d="m48.9 249.5h-2.8v-1h2.8z"/><path fill-rule="evenodd" class="j" d="m70.8 249.5h-16.3c-0.2 0-0.5-0.2-0.5-0.5v-16.2c0-0.3 0.3-0.5 0.5-0.5h16.3c0.3 0 0.5 0.2 0.5 0.5v16.2c0 0.3-0.2 0.5-0.5 0.5zm-15.8-1h15.3v-15.2h-15.3z"/><path class="l" d="m39.9 254.6h-36.8l3-27.1v-4.2h30.8v4.2z"/><path class="j" d="m36 227h-28.7v-1h28.7z"/><path class="j" d="m10 251.9h-4.9v-1h4.9z"/><path class="j" d="m7.9 249.5h-2.8v-1h2.8z"/><path fill-rule="evenodd" class="j" d="m29.8 249.5h-16.3c-0.3 0-0.5-0.2-0.5-0.5v-16.2c0-0.3 0.2-0.5 0.5-0.5h16.3c0.2 0 0.5 0.2 0.5 0.5v16.2c0 0.3-0.3 0.5-0.5 0.5zm-15.8-1h15.3v-15.2h-15.3z"/><path class="o" d="m334.9 253.7h-16.1c-1 0-1.8-0.8-1.8-1.8v-29.9c0-0.5 0.2-0.9 0.6-1.2l6.9-5.6h4.7l6.9 5.6c0.4 0.3 0.6 0.7 0.6 1.2v29.9c0 1-0.8 1.8-1.8 1.8z"/><rect class="l" x="324.1" y="212.5" width="5.6" height="2.7" rx=".5"></rect><path class="l" d="m332.8 242.4h-11.9v-17.2h11.9z"/><path class="j" d="m332.1 241.5h-4.5v-1h4.5z"/><path class="j" d="m332.1 239.4h-2.9v-1h2.9z"/><path class="j" d="m328.6 221.4h-10.2v-1h10.2z"/><path class="o" d="m310.7 253.7h-16.1c-1 0-1.8-0.8-1.8-1.8v-29.9c0-0.5 0.2-0.9 0.5-1.2l7-5.6h4.7l6.9 5.6c0.4 0.3 0.6 0.7 0.6 1.2v29.9c0 1-0.8 1.8-1.8 1.8z"/><rect class="l" x="299.8" y="212.5" width="5.6" height="2.7" rx=".5"></rect><path class="l" d="m308.6 242.4h-11.9v-17.2h11.9z"/><path class="j" d="m307.8 241.5h-4.5v-1h4.5z"/><path class="j" d="m307.8 239.4h-2.8v-1h2.8z"/><path class="j" d="m304.3 221.4h-10.1v-1h10.1z"/><path class="o" d="m286.4 253.7h-16.1c-1 0-1.8-0.8-1.8-1.8v-29.9c0-0.5 0.2-0.9 0.6-1.2l6.9-5.6h4.8l6.9 5.6c0.3 0.3 0.6 0.7 0.6 1.2v29.9c0 1-0.9 1.8-1.9 1.8z"/><rect class="l" x="275.6" y="212.5" width="5.6" height="2.7" rx=".5"></rect><path class="l" d="m284.3 242.4h-11.9v-17.2h11.9z"/><path class="j" d="m283.6 241.5h-4.5v-1h4.5z"/><path class="j" d="m283.6 239.4h-2.8v-1h2.8z"/><path class="j" d="m280.1 221.4h-10.2v-1h10.2z"/><path class="g" d="m262.2 253.7h-16.1c-1 0-1.8-0.8-1.8-1.8v-29.9c0-0.5 0.2-0.9 0.6-1.2l6.9-5.6h4.7l6.9 5.6c0.4 0.3 0.6 0.7 0.6 1.2v29.9c0 1-0.8 1.8-1.8 1.8z"/><rect class="l" x="251.3" y="212.5" width="5.6" height="2.7" rx=".5"></rect><path class="k" d="m260.1 242.4h-11.9v-17.2h11.9z"/><path class="j" d="m259.4 241.5h-4.5v-1h4.5z"/><path class="j" d="m259.4 239.4h-2.9v-1h2.9z"/><path class="j" d="m255.9 221.4h-10.2v-1h10.2z"/><path class="g" d="m238 253.7h-16.1c-1 0-1.9-0.8-1.9-1.8v-29.9c0-0.5 0.3-0.9 0.6-1.2l6.9-5.6h4.8l6.9 5.6c0.4 0.3 0.6 0.7 0.6 1.2v29.9c0 1-0.8 1.8-1.8 1.8z"/><rect class="l" x="227.1" y="212.5" width="5.6" height="2.7" rx=".5"></rect><path class="k" d="m235.9 242.4h-11.9v-17.2h11.9z"/><path class="j" d="m235.1 241.5h-4.5v-1h4.5z"/><path class="j" d="m235.1 239.4h-2.8v-1h2.8z"/><path class="j" d="m231.6 221.4h-10.1v-1h10.1z"/><path class="g" d="m213.7 253.7h-16.1c-1 0-1.8-0.8-1.8-1.8v-29.9c0-0.5 0.2-0.9 0.6-1.2l6.9-5.6h4.8l6.9 5.6c0.3 0.3 0.5 0.7 0.5 1.2v29.9c0 1-0.8 1.8-1.8 1.8z"/><rect class="l" x="202.9" y="212.5" width="5.6" height="2.7" rx=".5"></rect><path class="k" d="m211.6 242.4h-11.9v-17.2h11.9z"/><path class="j" d="m210.9 241.5h-4.5v-1h4.5z"/><path class="j" d="m210.9 239.4h-2.9v-1h2.9z"/><path class="j" d="m207.4 221.4h-10.2v-1h10.2z"/><rect class="k" x="164.6" y="219.7" width="29.4" height="33.8" rx=".7"></rect><path class="i" d="m194 222h-29.4v-0.7h29.4z"/><path class="i" d="m194 228v9.6c-2.4-0.6-6.1 2.3-9.7 7.1-4.4 5.9-8.6-0.6-14.5-4.7-2.4-1.6-4-1.2-5.2 0v-9.6c1.2-1.1 2.8-1.6 5.2 0 5.9 4.2 10.1 10.6 14.5 4.7 3.6-4.8 7.3-7.7 9.7-7.1z"/><rect class="k" x="128.7" y="219.7" width="29.4" height="33.8" rx=".7"></rect><path class="i" d="m158 222h-29.3v-0.7h29.3z"/><path class="i" d="m158 228v9.6c-2.4-0.6-6 2.3-9.6 7.1-4.5 5.9-8.7-0.6-14.6-4.7-2.3-1.6-4-1.2-5.1 0v-9.6c1.1-1.1 2.8-1.6 5.1 0 5.9 4.2 10.1 10.6 14.6 4.7 3.6-4.8 7.2-7.7 9.6-7.1z"/><rect class="k" x="92.7" y="219.7" width="29.4" height="33.8" rx=".7"></rect><path class="i" d="m122.1 222h-29.4v-0.7h29.4z"/><path class="i" d="m122.1 228v9.6c-2.5-0.6-6.1 2.3-9.7 7.1-4.5 5.9-8.6-0.6-14.6-4.7-2.3-1.6-3.9-1.2-5.1 0v-9.6c1.2-1.1 2.8-1.6 5.1 0 6 4.2 10.1 10.6 14.6 4.7 3.6-4.8 7.2-7.7 9.7-7.1z"/><path class="h" d="m15.2 296.9h3.2c3.3 0 6 2.7 6 6v16.8c0 0.2-0.2 0.4-0.5 0.4h-14.3c-0.2 0-0.4-0.2-0.4-0.4v-16.8c0-3.3 2.7-6 6-6z"/><path class="h" d="m19.7 298.8h-5.8v-3.8h5.8z"/><path class="h" d="m20.7 295.3h-7.8v-1.6h7.8z"/><circle class="g" cx="16.8" cy="308.9" r="4.4"/><path fill-rule="evenodd" class="j" d="m16.8 313.8c-2.7 0-4.9-2.2-4.9-4.9 0-2.7 2.2-4.9 4.9-4.9 2.7 0 4.9 2.2 4.9 4.9 0 2.7-2.2 4.9-4.9 4.9zm0-8.8c-2.1 0-3.9 1.8-3.9 3.9 0 2.1 1.8 3.9 3.9 3.9 2.1 0 3.9-1.8 3.9-3.9 0-2.1-1.8-3.9-3.9-3.9z"/><path class="j" d="m19.7 296.3h-5.8v-1h5.8z"/><path class="j" d="m23.3 315.5h-2.6v-1h2.6z"/><path class="j" d="m23.3 317.2h-5.2v-1h5.2z"/><rect class="l" x="157.7" y="280.4" width="33.5" height="40" rx="1.1"></rect><circle class="i" cx="174.5" cy="305.1" r="7.9"/><path class="j" d="m191.2 284.2h-33.5v-1h33.5z"/><path class="j" d="m191.2 318h-33.5v-1h33.5z"/><path class="j" d="m186.3 289.4h-23.7v-1h23.7z"/><path class="j" d="m184.4 291.4h-19.8v-1h19.8z"/><rect class="l" x="116.5" y="280.4" width="33.5" height="40" rx="1.1"></rect><circle class="i" cx="133.2" cy="305.1" r="7.9"/><path class="j" d="m150 284.2h-33.5v-1h33.5z"/><path class="j" d="m150 318h-33.5v-1h33.5z"/><path class="j" d="m145.1 289.4h-23.7v-1h23.7z"/><path class="j" d="m143.2 291.4h-19.9v-1h19.9z"/><rect class="o" x="75.3" y="280.4" width="33.5" height="40" rx="1.1"></rect><circle class="i" cx="92" cy="305.1" r="7.9"/><path class="j" d="m108.8 284.2h-33.5v-1h33.5z"/><path class="j" d="m108.8 318h-33.5v-1h33.5z"/><path class="j" d="m103.9 289.4h-23.7v-1h23.7z"/><path class="j" d="m101.9 291.4h-19.8v-1h19.8z"/><rect class="o" x="34" y="280.4" width="33.5" height="40" rx="1.1"></rect><circle class="i" cx="50.8" cy="305.1" r="7.9"/><path class="j" d="m67.5 284.2h-33.5v-1h33.5z"/><path class="j" d="m67.5 318h-33.5v-1h33.5z"/><path class="j" d="m62.6 289.4h-23.7v-1h23.7z"/><path class="j" d="m60.7 291.4h-19.8v-1h19.8z"/><path class="g" d="m343.1 320.2h-36.8l3-27v-4.2h30.8v4.2z"/><path class="j" d="m339.2 292.7h-28.8v-1h28.8z"/><path class="j" d="m313.2 317.6h-4.9v-1h4.9z"/><path class="j" d="m311.1 315.1h-2.8v-1h2.8z"/><path fill-rule="evenodd" class="j" d="m332.9 315.2h-16.2c-0.3 0-0.5-0.2-0.5-0.5v-16.2c0-0.3 0.2-0.5 0.5-0.5h16.2c0.3 0 0.5 0.2 0.5 0.5v16.2c0 0.3-0.2 0.5-0.5 0.5zm-15.7-1h15.2v-15.2h-15.2z"/><path class="g" d="m302.9 320.2h-36.8l3-27v-4.2h30.8v4.2z"/><path class="j" d="m299 292.7h-28.7v-1h28.7z"/><path class="j" d="m273 317.6h-4.9v-1h4.9z"/><path class="j" d="m270.9 315.1h-2.8v-1h2.8z"/><path fill-rule="evenodd" class="j" d="m292.8 315.2h-16.3c-0.3 0-0.5-0.2-0.5-0.5v-16.2c0-0.3 0.2-0.5 0.5-0.5h16.3c0.3 0 0.5 0.2 0.5 0.5v16.2c0 0.3-0.2 0.5-0.5 0.5zm-15.8-1h15.3v-15.2h-15.3z"/><path class="h" d="m258.8 283.2v34.4h-15.9v-34.4z"/><path class="h" d="m258.8 283.3h-16l-1-2.7h18z"/><path class="h" d="m242.8 317.6h16l1 2.6h-18z"/><path class="g" d="m258.8 295.6v10.2c-2.6 2.2-6.9-2.1-11.3-4-2.1-0.8-3.5-0.2-4.6 1v-10.2c1.1-1.2 2.5-1.8 4.6-0.9 4.4 1.8 8.7 6.2 11.3 3.9z"/><path class="j" d="m257.9 283.7h-14v-0.9h14z"/><path class="j" d="m257.9 317.6h-14v-1h14z"/><path class="j" d="m258.8 294.9v1.3q-0.2 0.1-0.5 0.2c-1.9 0.9-4.4-0.6-7-2.1-1.3-0.8-2.7-1.6-4-2.2q-1.8-0.8-3.1 0c-0.5 0.3-0.9 0.7-1.3 1.2v-1.4q0.4-0.3 0.8-0.6 1.8-1 3.9-0.1c1.5 0.6 2.9 1.5 4.2 2.3 2.4 1.4 4.6 2.8 6.1 2.1q0.5-0.2 0.9-0.7z"/><path class="j" d="m258.8 305.1v1.3q-0.2 0.1-0.5 0.2c-1.9 0.9-4.4-0.6-7-2.1-1.3-0.8-2.7-1.7-4-2.2q-1.8-0.8-3.1 0c-0.5 0.3-0.9 0.7-1.3 1.2v-1.4q0.4-0.4 0.8-0.6 1.8-1 3.9-0.1c1.5 0.6 2.9 1.4 4.2 2.2 2.4 1.5 4.6 2.8 6.1 2.2q0.5-0.3 0.9-0.7z"/><path class="h" d="m237.3 283.2v34.4h-15.9v-34.4z"/><path class="h" d="m237.3 283.3h-15.9l-1.1-2.7h18.1z"/><path class="h" d="m221.4 317.6h15.9l1.1 2.6h-18.1z"/><path class="g" d="m237.3 295.6v10.2c-2.6 2.2-6.9-2.1-11.3-4-2.1-0.8-3.5-0.2-4.6 1v-10.2c1.1-1.2 2.5-1.8 4.6-0.9 4.4 1.8 8.7 6.2 11.3 3.9z"/><path class="j" d="m236.4 283.7h-14v-0.9h14z"/><path class="j" d="m236.4 317.6h-14v-1h14z"/><path class="j" d="m237.3 294.9v1.3q-0.2 0.1-0.5 0.2c-1.9 0.9-4.4-0.6-7-2.1-1.3-0.8-2.6-1.6-4-2.2q-1.8-0.8-3.1 0c-0.5 0.3-0.9 0.7-1.3 1.2v-1.4q0.4-0.3 0.8-0.6 1.8-1 4-0.1c1.4 0.6 2.8 1.5 4.1 2.3 2.4 1.4 4.7 2.8 6.2 2.1q0.4-0.2 0.8-0.7z"/><path class="j" d="m237.3 305.1v1.3q-0.2 0.1-0.5 0.2c-1.9 0.9-4.4-0.6-7-2.1-1.3-0.8-2.6-1.7-4-2.2q-1.8-0.8-3.1 0c-0.5 0.3-0.9 0.7-1.3 1.2v-1.4q0.4-0.4 0.8-0.6 1.8-1 4-0.1c1.4 0.6 2.8 1.4 4.1 2.2 2.4 1.5 4.7 2.8 6.2 2.2q0.4-0.3 0.8-0.7z"/><path class="h" d="m215.8 283.2v34.4h-15.9v-34.4z"/><path class="h" d="m215.9 283.3h-16l-1-2.7h18z"/><path class="h" d="m199.9 317.6h16l1 2.6h-18z"/><path class="g" d="m215.8 295.6v10.2c-2.6 2.2-6.8-2.1-11.3-4-2-0.8-3.5-0.2-4.6 1v-10.2c1.1-1.2 2.6-1.8 4.6-0.9 4.5 1.8 8.7 6.2 11.3 3.9z"/><path class="j" d="m214.9 283.7h-14v-0.9h14z"/><path class="j" d="m214.9 317.6h-14v-1h14z"/><path class="j" d="m215.8 294.9v1.3q-0.2 0.1-0.4 0.2c-2 0.9-4.4-0.6-7.1-2.1-1.3-0.8-2.6-1.6-4-2.2q-1.8-0.8-3.1 0c-0.5 0.3-0.9 0.7-1.3 1.2v-1.4q0.4-0.3 0.8-0.6 1.8-1 4-0.1c1.4 0.6 2.8 1.5 4.1 2.3 2.4 1.4 4.7 2.8 6.2 2.1q0.4-0.2 0.8-0.7z"/><path class="j" d="m215.8 305.1v1.3q-0.2 0.1-0.4 0.2c-2 0.9-4.4-0.6-7.1-2.1-1.3-0.8-2.6-1.7-4-2.2q-1.8-0.8-3.1 0c-0.5 0.3-0.9 0.7-1.3 1.2v-1.4q0.4-0.4 0.8-0.6 1.8-1 4-0.1c1.4 0.6 2.8 1.4 4.1 2.2 2.4 1.5 4.7 2.8 6.2 2.2q0.4-0.3 0.8-0.7z"/><path class="q" d="m653 406.7c-0.1 1.1-1.1 1.9-2.2 1.9h-29.9c-0.3 0-0.6-0.1-0.9-0.4-0.7-0.9-0.4-1.7-0.1-2.1 0.2-0.4 0.7-0.5 1.1-0.5q7.5 1 16.9-5.5h0.2c-1.2-9-13.5-101.4-12.2-122.1 0.6-8.2 1.9-14.8 3.4-20h23.3l-1.6 140.7q2.2 6.6 2 8z"/><path class="l" d="m655.1 393h-18.4c-19.3-111.6-9.6-135.8-6.8-141.6 0.4-0.8 1.1-1.2 2-1.2h25.2z"/><path class="m" d="m620.6 403.5c2.4-0.6 17-0.5 16.4-7.2 0-0.2 0.1-0.4 0.3-0.4h0.1l16.3-1.7q0 0 0 0c0.2 0 0.4 0.2 0.4 0.4-0.1 1.3-0.4 4.7 0 5.9 0.3 0.8 0.7 2.9 0.7 4.7q0 0.5 0 1c-0.1 1.1-0.4 1.9-1.1 2.2-1.7 0.7-28 0.3-33.1 0.2-0.5 0-1-0.4-1.1-0.9q0-0.2-0.1-0.4-0.1-0.4-0.1-1c-0.2-1.2 0-2.5 1.3-2.8z"/><path class="j" d="m654.8 405.2q0 0.5 0 1l-35.4 1.1q-0.1-0.4-0.1-1z"/><path class="j" d="m650.8 396.9c0.6 0.3 1.2 1 1.4 1.9 0.2 0.7 0.1 1.4-0.2 2-0.2 0.5-0.6 0.9-1.1 1-0.5 0.1-1 0-1.5-0.4-0.5-0.4-0.8-1-1-1.7-0.1-0.7-0.1-1.4 0.2-2 0.2-0.5 0.6-0.9 1.1-1q0.6-0.1 1.1 0.2z"/><path class="q" d="m663.6 399.6c0.8 2.8 0.7 5.8 0.5 7.1-0.2 1.1-1.1 1.9-2.2 1.9h-29.9c-0.3 0-0.7-0.1-0.9-0.4-0.7-0.9-0.5-1.7-0.1-2.1 0.2-0.4 0.6-0.5 1.1-0.5q7.5 1 16.8-5.5l0.4-0.3-0.9-141.8h23.1c2.1 5.1 3.8 11.8 3.6 20-0.3 21.3-11 116.9-11.5 121.6z"/><path class="l" d="m643.9 250.2h25.9q19.5 20.7-4.9 142.8h-19.1z"/><path class="j" d="m671.4 272.5q-0.1 0-0.3-0.1l-0.3-0.2c-0.2-0.1-0.3-0.4-0.1-0.7 0.2-0.2 0.5-0.3 0.7-0.1l0.3 0.2c0.2 0.2 0.3 0.5 0.1 0.7q-0.1 0.2-0.4 0.2z"/><path class="j" d="m670 270.5q-0.1 0-0.3-0.1l-0.3-0.2c-0.2-0.1-0.2-0.5-0.1-0.7 0.2-0.2 0.5-0.3 0.7-0.1l0.3 0.2c0.2 0.1 0.3 0.4 0.1 0.7q-0.1 0.2-0.4 0.2z"/><path class="j" d="m672.9 271.3q-0.2 0-0.3-0.1l-0.3-0.2c-0.2-0.1-0.3-0.4-0.1-0.7 0.1-0.2 0.4-0.3 0.7-0.1l0.3 0.2c0.2 0.2 0.2 0.5 0.1 0.7q-0.2 0.2-0.4 0.2z"/><path class="m" d="m631.1 403.5c2.4-0.6 17-0.5 16.3-7.2 0-0.2 0.2-0.4 0.4-0.4h0.1l16.2-1.7q0.1 0 0.1 0c0.2 0 0.4 0.2 0.3 0.4-0.1 1.3-0.3 4.7 0.1 5.9 0.3 0.8 0.7 2.9 0.7 4.7q0 0.5 0 1c-0.1 1.1-0.5 1.9-1.1 2.2-1.7 0.7-28 0.3-33.1 0.2-0.5 0-1-0.4-1.1-0.9q-0.1-0.2-0.1-0.4-0.1-0.4-0.2-1c-0.1-1.2 0.1-2.5 1.4-2.8z"/><path class="j" d="m665.3 405.2q0 0.5 0 1l-35.4 1.1q-0.1-0.4-0.2-1z"/><path class="j" d="m661.2 396.9c0.7 0.3 1.3 1 1.5 1.9 0.1 0.7 0.1 1.4-0.2 2-0.2 0.5-0.7 0.9-1.1 1-0.5 0.1-1 0-1.5-0.4-0.5-0.4-0.8-1-1-1.7-0.2-0.7-0.1-1.4 0.2-2 0.2-0.5 0.6-0.9 1.1-1q0.5-0.1 1 0.2z"/><path class="q" d="m662.6 171.5c-0.6 0.9-1.4 1.6-2.4 2-0.2 0.1-1.2 0.2-2 0.2-0.7 3.2-2.3 6.2-4.9 8.4-3.2 2.6-7.3 3.7-11.4 2.9-3.2-0.7-8-2.8-9.1-6.1-0.3-0.8-0.4-1.8-0.4-2.7-0.1-7 0.1-15.1 2.6-21.7 2.3-5.8 12.9-8.1 20.2-1.7 3.5 3 4.2 8.4 4 13.4q0.3-0.2 0.4-0.2c1.5-0.4 3 0.7 3.5 2.2 0.3 1.1 0.1 2.4-0.5 3.3z"/><ellipse class="j" cx="636.8" cy="166" rx=".9" ry="1.9"/><ellipse class="j" cx="645" cy="166" rx=".9" ry="1.9"/><path class="j" d="m639 173.2c0.6 0.3 1.3 0.5 1.9 0.5q1-0.1 1.9-0.6c0.3-0.1 0.6-0.3 0.9-0.5q0.4-0.4 0.8-0.7-0.3 0.5-0.6 0.9c-0.3 0.2-0.5 0.5-0.9 0.7-0.5 0.5-1.3 0.7-2.1 0.7-0.7 0-1.5-0.2-2.1-0.7-0.6-0.4-1.1-1-1.4-1.6q0.8 0.8 1.6 1.3z"/><path class="j" d="m640.9 175.5c0.4 0 0.7-0.1 1-0.2-0.2 0.3-0.6 0.4-1 0.4-0.3 0-0.7-0.1-1-0.4 0.4 0.1 0.7 0.2 1 0.2z"/><path class="j" d="m643.3 159.3c0.4-0.4 0.9-0.5 1.5-0.5q0.8-0.1 1.5 0.2c0.5 0.1 1 0.4 1.4 0.8 0.4 0.3 0.7 0.8 1 1.2 0.1 0.2 0 0.5-0.2 0.6-0.2 0.1-0.4 0.1-0.5-0.1h-0.1c-0.3-0.3-0.6-0.5-0.9-0.7-0.3-0.3-0.7-0.4-1.1-0.5q-0.5-0.1-1.1-0.1c-0.4 0-0.8 0.1-1.2 0l-0.1-0.1c-0.2 0-0.4-0.3-0.3-0.5q0-0.2 0.1-0.3z"/><path class="j" d="m638.7 159.6c0.1 0.2-0.1 0.5-0.3 0.5l-0.2 0.1c-0.4 0.1-0.8 0-1.1 0q-0.6 0-1.2 0.1c-0.3 0.1-0.7 0.2-1 0.5-0.3 0.2-0.6 0.4-0.9 0.7h-0.1c-0.1 0.2-0.3 0.2-0.5 0.1-0.2-0.1-0.3-0.4-0.2-0.6 0.3-0.4 0.5-0.9 1-1.2 0.4-0.4 0.8-0.7 1.3-0.8q0.8-0.3 1.6-0.2c0.5 0 1 0.1 1.5 0.5q0.1 0.1 0.1 0.3z"/><path class="j" d="m639.1 165.3q-0.1 1.1-0.4 2.2 0 0.3-0.2 0.6c0 0.2-0.1 0.3-0.1 0.4 0 0.3 0.1 0.5 0.3 0.7 0.5 0.4 1.3 0.2 2-0.1q-0.4 0.4-1 0.6c-0.4 0.1-0.8 0.2-1.2-0.1-0.4-0.1-0.7-0.6-0.7-1.1 0-0.2 0.1-0.5 0.2-0.6q0.1-0.3 0.1-0.5c0.2-0.7 0.4-1.4 0.5-2.1q0.2-1.1 0.4-2.2 0.2 1.1 0.1 2.2z"/><path class="j" d="m661.1 168.5c-0.3-0.2-0.7-0.1-1 0-0.7 0.3-1.1 1.1-1.4 1.7l-0.5-0.3c0.3-0.3 0.7-0.7 1.3-0.8 0.3-0.1 0.6-0.1 0.9 0.1 0.2 0.3 0.3 0.5 0.4 0.8q0.1 0.4 0.1 0.8c0 0.3-0.2 0.6-0.5 0.7-0.6 0.1-1 0-1.5-0.2 0.5 0 1 0.1 1.4-0.1 0.3-0.2 0.2-0.7 0-1.1 0-0.2-0.1-0.3-0.3-0.4q-0.1-0.1-0.4-0.1c-0.3 0.1-0.7 0.4-1 0.7v0.1q-0.1 0.1-0.3 0c-0.2 0-0.2-0.2-0.2-0.4q0.3-0.6 0.7-1.1c0.3-0.3 0.6-0.7 1.1-0.8 0.4-0.2 0.9-0.2 1.3 0.1 0.4 0.3 0.5 0.8 0.5 1.2-0.1-0.4-0.3-0.8-0.6-0.9z"/><path class="j" d="m637.4 144.8c5.3 2.3 9.5 0.1 15.1 1.4q5.6 1.3 5.4 7.2c5.8 1.8 6.9 7.1 7 11.2q0.1 4.2-2 6.2c0.6-1.7 0.2-3.9-1.9-4.6-3-1-3.6 2.9-5.2 3.4-1.5 0.5-1.1-2.3-1.3-4.5-0.2-2.2-1.6-2-2.3-2.5q-0.7-0.5 0-4.9-12.3 1.7-16.7-3.6-1.1 1.4-1.9 5.4c-2.8-4.1-1.5-17 3.8-14.7z"/><path class="q" d="m642.7 210.6c-2.9 12.5-10.6 44.6-32.2 66.4-0.7 0.7-1.6 1.1-2.5 1.3-7.4 1.4-12 0.6-14.8-0.6-1.6-0.7-1.2-3.1 0.5-3.3 4.8-0.5 8.2-0.1 10.6 0.6 0.7-2 19.3-53.1 23.3-68.2 0.7-2.7 1.6-4.7 2.4-6.2 2.9-5.2 10.6-4.7 12.6 0.9 0.8 2.2 1 5.1 0.1 9.1z"/><path class="c" d="m632.6 197.5c3.3-1.6 7.5-0.6 9.6 2.4 1 1.2 1.7 3 1.7 5.3q-0.1 6.6-4.3 21.7l-17.7-3.8 7.2-21.5c0.5-1.7 1.7-3.3 3.4-4.1q0 0 0.1 0z"/><path class="j" d="m621 227.7l1.5-4.5 7.1 1.5z"/><path class="q" d="m671.5 210.6c-2.5 14.3-4.7 27.2-3.7 35.9h-35.3q-0.3-14.1-1.4-24.5c-1-9.4-4.5-18.8 1.1-22.2 3.7-2.2 6.3-3 8.1-5.2 0.2-0.7 0.6-2.4 1-4.4 0.3-1.8 0.5-3.8 0.3-5.3 0-0.8-0.2-1.4-0.5-1.9l17.2-9.7q0 0.1 0 0.2c-0.3 1.6-2.4 14.1-0.2 20.8 1.3 0.6 2.9 1 4.8 1.1 2.1 0 4.2 0.8 5.8 2.2 2.1 2.1 4 5.9 2.8 13z"/><path class="j" d="m641.6 184.9q0.1 0 0.1 0c1.2 0.2 4.1 0.5 7.2-0.3 2.4-0.7 4.9-2.1 6.6-4.8-0.1 0.4-4.9 11.5-14.2 10.4 0.3-1.8 0.5-3.8 0.3-5.3z"/><path class="c" d="m640.2 193.2q4.5 14.1 17.8-0.3 4.6 0.7 7.5 0.8c2.9 0.1 7.1 2.5 6.7 11.1-0.5 8.7-2.8 23.1-2.9 24.2q-0.1 1.1 0 23.5h-38.7l-1.8-48.3q-0.4-5.8 4.9-7.5 5.4-1.7 6.5-3.5z"/><path class="g" d="m664.1 193.6c-11.5 3.2-8.6 16.7-9 25.4-0.1 4.5 10.1 10.2 14.2 8.3q0.2 0 0.3-0.1c0.3-0.2 0.6 0 0.6 0.3v25.7h-23.4l0.8-43.3c0.2-5.5 2.7-10.7 6.9-14.2l3.5-2.8q3-0.3 6.1 0.7z"/><path class="q" d="m670.7 210.6c-2.9 12.5-10.6 44.8-32.5 66.6-0.5 0.5-1.1 0.8-1.9 0.9-3.2 0.2-12.7 0.6-15.1-0.4-1.6-0.7-1.2-3.1 0.5-3.3 4.8-0.5 8.2-0.1 10.6 0.6 0.7-1.9 19.3-53.1 23.3-68.2 0.7-2.7 1.6-4.7 2.4-6.2 2.9-5.2 10.6-4.7 12.6 0.9 0.8 2.2 1 5.1 0.1 9.1z"/><path class="c" d="m660.6 197.5c3.3-1.6 7.5-0.6 9.6 2.4 1 1.2 1.7 3 1.7 5.3q-0.1 6.6-4.3 21.7l-17.7-3.8 7.2-21.5c0.5-1.7 1.7-3.3 3.4-4.1q0 0 0.1 0z"/><path class="j" d="m650.5 223.2l16 3.4-16.7-1.4z"/><path class="j" d="m664.5 224.6q-0.2 0-0.3-0.1l-0.3-0.2c-0.2-0.1-0.3-0.4-0.1-0.7 0.1-0.2 0.4-0.3 0.7-0.1l0.3 0.2c0.2 0.1 0.3 0.4 0.1 0.7q-0.2 0.2-0.4 0.2z"/><path class="j" d="m663.1 222.6q-0.1 0-0.3-0.1l-0.3-0.2c-0.2-0.2-0.3-0.5-0.1-0.7 0.1-0.2 0.4-0.3 0.7-0.1l0.3 0.2c0.2 0.1 0.3 0.4 0.1 0.7q-0.1 0.2-0.4 0.2z"/><path class="j" d="m666 223.4q-0.2 0-0.3-0.1l-0.3-0.2c-0.3-0.1-0.3-0.4-0.2-0.7 0.2-0.2 0.5-0.3 0.7-0.1l0.3 0.2c0.3 0.1 0.3 0.4 0.2 0.7q-0.2 0.2-0.4 0.2z"/><path class="g" d="m640.2 193.2l0.5 1.5c1.7 5.2 2.4 10.7 2 16.3l-2.5 42.2h-10l-1.1-51.6q-0.8-4.9 11.1-8.4z"/><path class="m" d="m638.5 211h-6.8c-0.3 0-0.5-0.2-0.5-0.4v-2.1c0-0.3 0.2-0.5 0.5-0.5h6.8c0.3 0 0.5 0.2 0.5 0.5v2.1c0 0.2-0.2 0.4-0.5 0.4z"/><path class="j" d="m638.7 198.6q-0.1 0-0.2-0.1l-0.3-0.2c-0.3-0.1-0.3-0.4-0.2-0.6 0.2-0.3 0.5-0.3 0.7-0.2l0.3 0.2c0.2 0.2 0.3 0.5 0.2 0.7q-0.2 0.2-0.5 0.2z"/><path class="j" d="m637.3 196.6q-0.1 0-0.2-0.1l-0.3-0.2c-0.3-0.1-0.3-0.4-0.2-0.7 0.2-0.2 0.5-0.3 0.7-0.1l0.3 0.2c0.2 0.1 0.3 0.5 0.2 0.7q-0.2 0.2-0.5 0.2z"/><path class="j" d="m640.2 197.4q-0.2 0-0.3-0.1l-0.3-0.2c-0.2-0.1-0.3-0.4-0.1-0.7 0.1-0.2 0.4-0.2 0.7-0.1l0.3 0.2c0.2 0.2 0.3 0.5 0.1 0.7q-0.2 0.2-0.4 0.2z"/><path class="j" d="m633 251.5q-0.1 0-0.3-0.1l-0.3-0.2c-0.2-0.2-0.2-0.5-0.1-0.7 0.2-0.2 0.5-0.3 0.7-0.2l0.3 0.2c0.2 0.2 0.3 0.5 0.1 0.7q-0.1 0.3-0.4 0.3z"/><path class="j" d="m631.6 249.4q-0.1 0-0.3 0l-0.3-0.2c-0.2-0.2-0.2-0.5-0.1-0.7 0.2-0.3 0.5-0.3 0.7-0.2l0.3 0.2c0.2 0.2 0.3 0.5 0.1 0.7q-0.1 0.2-0.4 0.2z"/><path class="j" d="m634.5 250.3q-0.2 0-0.3-0.1l-0.3-0.2c-0.2-0.2-0.3-0.5-0.1-0.7 0.1-0.2 0.4-0.3 0.7-0.2l0.3 0.2c0.2 0.2 0.3 0.5 0.1 0.7q-0.2 0.3-0.4 0.3z"/><path class="c" d="m559.8 236.3h-6.3v-21.6h6.3z"/><path class="c" d="m600.3 254.3v20.7h-49.6v-7.3-17.5-16.4h22.8l11.3 16.4h11.5c2.2 0 4 1.8 4 4.1z"/><rect class="c" x="550.7" y="209" width="12" height="8.9" rx=".7"></rect><path class="j" d="m563.1 267.6h-1v-31.3h1z"/><path class="j" d="m561.2 215.9h-1v-6.1h1z"/><path class="j" d="m596.2 272.4q-0.1 0-0.3-0.1l-0.3-0.2c-0.2-0.1-0.3-0.4-0.1-0.6 0.1-0.3 0.4-0.3 0.7-0.2l0.3 0.2c0.2 0.2 0.3 0.5 0.1 0.7q-0.1 0.2-0.4 0.2z"/><path class="j" d="m594.8 270.4q-0.1 0-0.3-0.1l-0.3-0.2c-0.2-0.1-0.3-0.4-0.1-0.7 0.1-0.2 0.4-0.3 0.7-0.1l0.3 0.2c0.2 0.1 0.3 0.5 0.1 0.7q-0.1 0.2-0.4 0.2z"/><path class="j" d="m597.7 271.2q-0.2 0-0.3-0.1l-0.3-0.2c-0.2-0.1-0.3-0.4-0.2-0.6 0.2-0.3 0.5-0.3 0.7-0.2l0.3 0.2c0.3 0.2 0.3 0.5 0.2 0.7q-0.2 0.2-0.4 0.2z"/><path class="j" d="m553.2 216.6q-0.2 0-0.3 0l-0.3-0.2c-0.2-0.2-0.3-0.5-0.1-0.7 0.1-0.3 0.4-0.3 0.7-0.2l0.3 0.2c0.2 0.2 0.3 0.5 0.1 0.7q-0.2 0.2-0.4 0.2z"/><path class="j" d="m551.8 214.6q-0.2 0-0.3-0.1l-0.3-0.2c-0.2-0.1-0.3-0.4-0.1-0.7 0.1-0.2 0.4-0.3 0.7-0.1l0.3 0.2c0.2 0.2 0.3 0.5 0.1 0.7q-0.2 0.2-0.4 0.2z"/><path class="j" d="m554.6 215.4q-0.1 0-0.2-0.1l-0.3-0.2c-0.3-0.1-0.3-0.4-0.2-0.6 0.2-0.3 0.5-0.3 0.7-0.2l0.3 0.2c0.2 0.2 0.3 0.5 0.2 0.7q-0.2 0.2-0.5 0.2z"/><path class="g" d="m751 408.8h-198.3v-27.7h198.3z"/><path class="r" d="m751 408.8h-34v-27.7h34z"/><path class="h" d="m751 386h-204.2v-101.9h204.2z"/><path class="g" d="m751 284.1h-217.6v-9.1h217.6z"/><path class="s" d="m751 386h-38v-101.9h38z"/><path class="r" d="m751 284.1h-41v-9.1h41z"/><path class="j" d="m590.2 335l-0.4-0.9 64.8-33.5 0.5 0.9z"/><path class="j" d="m600.6 338.8l-0.5-0.9 44.4-24.6 0.5 0.9z"/><path class="j" d="m551.2 289.9q-0.1 0-0.2-0.1l-0.3-0.2c-0.3-0.2-0.3-0.5-0.2-0.7 0.2-0.2 0.5-0.3 0.7-0.2l0.3 0.2c0.3 0.2 0.3 0.5 0.2 0.7q-0.2 0.3-0.5 0.3z"/><path class="j" d="m549.9 287.8q-0.2 0-0.3 0l-0.3-0.2c-0.3-0.2-0.3-0.5-0.2-0.7 0.2-0.3 0.5-0.3 0.7-0.2l0.3 0.2c0.3 0.2 0.3 0.5 0.2 0.7q-0.2 0.2-0.4 0.2z"/><path class="j" d="m552.7 288.7q-0.1 0-0.3-0.1l-0.3-0.2c-0.2-0.2-0.3-0.5-0.1-0.7 0.1-0.2 0.4-0.3 0.7-0.2l0.3 0.2c0.2 0.2 0.3 0.5 0.1 0.7q-0.1 0.3-0.4 0.3z"/><path class="j" d="m697.6 378.7q-0.2 0-0.3-0.1l-0.3-0.2c-0.3-0.1-0.3-0.5-0.2-0.7 0.2-0.2 0.5-0.3 0.7-0.1l0.3 0.2c0.3 0.1 0.3 0.4 0.2 0.7q-0.2 0.2-0.4 0.2z"/><path class="j" d="m696.2 376.7q-0.2 0-0.3-0.1l-0.3-0.2c-0.2-0.2-0.3-0.5-0.2-0.7 0.2-0.2 0.5-0.3 0.7-0.1l0.3 0.2c0.3 0.1 0.3 0.4 0.2 0.6q-0.2 0.3-0.4 0.3z"/><path class="j" d="m699 377.5q-0.1 0-0.3-0.1l-0.3-0.2c-0.2-0.1-0.3-0.5-0.1-0.7 0.1-0.2 0.5-0.3 0.7-0.1l0.3 0.2c0.2 0.1 0.3 0.4 0.1 0.7q-0.1 0.2-0.4 0.2z"/><path class="h" d="m717.1 215.1v4.6 2 53.3h-38.5v-53.9-1.4-4.5l3.3 3 3.2-3 3.2 2.9 3.2-3 3.2 3 3.1-2.9 3.3 3 3.2-3 3.3 3 3.2-3 3.1 2.9z"/><path class="j" d="m692.1 251.6l-0.6-0.8 11.7-8.3 0.6 0.8z"/><path class="j" d="m692.1 256.3l-0.6-0.8 15.2-11.7 0.6 0.8z"/><path class="j" d="m682.8 224.4q-0.1 0-0.2-0.1l-0.3-0.2c-0.3-0.1-0.3-0.5-0.2-0.7 0.2-0.2 0.5-0.3 0.7-0.1l0.3 0.2c0.2 0.1 0.3 0.4 0.1 0.7q-0.1 0.2-0.4 0.2z"/><path class="j" d="m681.4 222.4q-0.1 0-0.2-0.1l-0.3-0.2c-0.3-0.2-0.3-0.5-0.2-0.7 0.2-0.2 0.5-0.3 0.7-0.1l0.3 0.2c0.2 0.1 0.3 0.4 0.2 0.6q-0.2 0.3-0.5 0.3z"/><path class="j" d="m684.3 223.2q-0.2 0-0.3-0.1l-0.3-0.2c-0.2-0.1-0.3-0.5-0.1-0.7 0.1-0.2 0.4-0.3 0.7-0.1l0.3 0.2c0.2 0.1 0.3 0.4 0.1 0.7q-0.2 0.2-0.4 0.2z"/><path class="t" d="m311 429.9c0 4.5-67 5.1-149.5 5.1-82.6 0-149.6-0.6-149.6-5.1 0-4.5 67-8.1 149.6-8.1 82.5 0 149.5 3.6 149.5 8.1z"/><path class="q" d="m157.5 286.7l-3.8 4.5c-28.6-12.9-47.1-41.2-54.2-52-2.2-3.5-3-6.3-3-8.7 0-5.9 7-8.9 11.5-5.1 1.4 1.2 2.8 2.8 4.4 5q9.1 13.1 45.1 56.3z"/><path class="g" d="m103.7 222c1.8 0.2 3.5 1.3 4.6 2.7l40.8 51.7-5 10.5q-17.8-13-31.2-27.5c-9.9-10.8-16.4-23.7-17.3-26.4-0.8-2.1-0.7-4-0.3-5.5 1.1-3.5 4.6-5.8 8.3-5.5q0.1 0 0.1 0z"/><path class="j" d="m110.5 256.7l-2.9-3.8-1.5-16.5z"/><path class="j" d="m138.3 280.5q-0.1 0-0.3-0.1l-0.3-0.2c-0.2-0.1-0.3-0.5-0.1-0.7 0.1-0.2 0.4-0.3 0.7-0.1l0.3 0.2c0.2 0.1 0.3 0.4 0.1 0.7q-0.1 0.2-0.4 0.2z"/><path class="j" d="m136.9 278.5q-0.1 0-0.3-0.1l-0.3-0.2c-0.2-0.2-0.3-0.5-0.1-0.7 0.1-0.2 0.5-0.3 0.7-0.2l0.3 0.3c0.2 0.1 0.3 0.4 0.1 0.6q-0.1 0.3-0.4 0.3z"/><path class="j" d="m139.8 279.3q-0.2 0-0.3-0.1l-0.3-0.2c-0.2-0.1-0.3-0.5-0.2-0.7 0.2-0.2 0.5-0.3 0.7-0.1l0.3 0.2c0.3 0.1 0.3 0.4 0.2 0.7q-0.2 0.2-0.4 0.2z"/><path class="u" d="m147 274.4c0.4-0.2 0.8-0.2 1.1 0.1 1.2 1.1 3.9 3.7 4.3 4.7 0.5 1.4-3.9 10-5.6 9.8-1.4-0.2-4.5-2.9-5.5-3.7q-0.2-0.2-0.3-0.5c-0.5-5.2 4.3-9.1 6-10.4z"/><path class="j" d="m146.6 287.4l-4.5-2.9 0.5-0.9 4.5 2.9z"/><path class="j" d="m148.6 285.7l-5.9-3.6 0.6-0.9 5.8 3.6z"/><path class="j" d="m150.4 282.6l-5.9-3.8 0.6-0.8 5.8 3.8z"/><path class="j" d="m151.1 279.7l-4.2-3.2 0.6-0.8 4.2 3.2z"/><path class="q" d="m162.6 294.9q-0.3 0.8-1 1.7c-1.4 1.9-4.8-0.6-6.6-2.1-0.5-0.5-0.9-1.2-1-1.9q-0.4-3-4.9-5.5l5.1-3q5.2 1.8 7.8 5.4c1.1 1.6 1.4 3.6 0.6 5.4z"/><path class="g" d="m268.1 352h-36.8l3-27.1v-4.2h30.8v4.2z"/><path class="j" d="m264.3 324.4h-28.8v-1h28.8z"/><path class="j" d="m238.3 349.3h-5v-1h5z"/><path class="j" d="m236.2 346.9h-2.9v-1h2.9z"/><path fill-rule="evenodd" class="j" d="m258 346.9h-16.2c-0.3 0-0.5-0.2-0.5-0.5v-16.2c0-0.3 0.2-0.5 0.5-0.5h16.2c0.3 0 0.5 0.2 0.5 0.5v16.2c0 0.3-0.2 0.5-0.5 0.5zm-15.7-1h15.2v-15.2h-15.2z"/><path class="h" d="m193.1 331.5h3.1c3.4 0 6.1 2.7 6.1 6v16.7c0 0.3-0.2 0.5-0.5 0.5h-14.3c-0.2 0-0.4-0.2-0.4-0.5v-16.7c0-3.3 2.7-6 6-6z"/><path class="h" d="m197.6 333.4h-5.9v-3.8h5.9z"/><path class="h" d="m198.6 329.9h-7.8v-1.6h7.8z"/><circle class="g" cx="194.7" cy="343.5" r="4.4"/><path fill-rule="evenodd" class="j" d="m194.7 348.4c-2.7 0-4.9-2.2-4.9-4.9 0-2.7 2.2-4.9 4.9-4.9 2.6 0 4.8 2.2 4.8 4.9 0 2.7-2.2 4.9-4.8 4.9zm0-8.8c-2.2 0-3.9 1.8-3.9 3.9 0 2.1 1.7 3.9 3.9 3.9 2.1 0 3.8-1.8 3.8-3.9 0-2.1-1.7-3.9-3.8-3.9z"/><path class="j" d="m197.6 330.9h-5.9v-1h5.9z"/><path class="j" d="m201.2 350.1h-2.6v-1h2.6z"/><path class="j" d="m201.2 351.7h-5.3v-1h5.3z"/><path class="o" d="m241.1 355.5l-11.7 11-26.1-27.6q-0.3-0.4-0.3-0.8l-0.4-6.4 5.3-4.9 6.3 0.7q0.5 0.1 0.8 0.4z"/><path class="p" d="m208.4 326.2l-6.3 6c-0.2 0.2-0.5 0.2-0.6 0l-1.2-1.2c-0.1-0.2-0.1-0.4 0-0.6l6.4-6c0.2-0.2 0.5-0.2 0.6 0l1.2 1.2c0.1 0.2 0.1 0.5-0.1 0.6z"/><path class="l" d="m238 354.6l-9.3 8.8-24.2-25.6 9.4-8.8z"/><path class="j" d="m208.2 327.1l-5.2 5-0.7-0.8 5.2-4.9z"/><path class="j" d="m236.8 354.4l-2.9 2.8-0.7-0.8 2.9-2.7z"/><path class="j" d="m234.8 353.1l-1.4 1.3-0.7-0.7 1.4-1.3z"/><path class="l" d="m229.9 377.4l1.9-31.2c0.1-0.6 0.6-1.1 1.2-1.1l37.7 2.3c0.6 0.1 1.1 0.6 1 1.2l-1.8 31.2c-0.1 0.6-0.6 1.1-1.2 1.1l-37.7-2.3c-0.6-0.1-1.1-0.6-1.1-1.2z"/><circle class="i" cx="246.1" cy="362.7" r="7.9"/><path class="j" d="m265.9 380.7l2.1-33.4h1l-2.1 33.5z"/><path class="j" d="m232.3 378.7l2-33.5 1 0.1-2 33.4z"/><path class="j" d="m261.1 375.5l1.5-23.7 1 0.1-1.5 23.6z"/><path class="j" d="m259.2 373.4l1.2-19.8 1 0.1-1.2 19.8z"/><path class="g" d="m206.1 379.6h-32.3c-1.1 0-1.9-0.9-1.7-2l1.2-8 0.1-1 1-6.5 0.2-1 1.2-8c0.1-0.8 0.8-1.5 1.6-1.5h25.1c0.8 0 1.5 0.7 1.7 1.5l1.2 8 0.1 1 1 6.5 0.1 0.5v0.5l1.2 8c0.2 1.1-0.6 2-1.7 2z"/><path class="g" d="m182.5 352.9l-2.4-6.3c0-0.2 0.1-0.5 0.3-0.6q0 0 0.1 0h0.1c3.1-0.5 6.2-0.6 9.4-0.6 3.1 0 6.2 0.1 9.4 0.6 0.3 0 0.4 0.3 0.4 0.5q0 0.1 0 0.2l-3.4 6.2c-0.2 0.2-0.4 0.3-0.7 0.2-0.2-0.1-0.3-0.4-0.1-0.6l3.4-6.3 0.4 0.7c-3.2 0.5-6.3 0.6-9.4 0.6-3.2 0-6.3-0.1-9.4-0.6l0.4-0.6 2.3 6.2c0.1 0.3 0 0.5-0.2 0.6-0.3 0.1-0.5 0-0.6-0.2z"/><path class="i" d="m206.6 369.1h-10.6c-0.9 3.3-3.3 5.6-6 5.6-2.8 0-5.2-2.3-6.1-5.6h-10.5v-0.5l1-6.5 0.1-0.5h9.9c1.2-2.5 3.2-4.1 5.6-4.1 2.3 0 4.3 1.6 5.5 4.1h9.9l0.1 0.5 1 6.5z"/><rect class="k" x="202.2" y="345.6" width="29.4" height="33.9" rx=".7"></rect><path class="i" d="m231.6 347.9h-29.4v-0.7h29.4z"/><path class="i" d="m231.6 353.9v9.6c-2.5-0.6-6.1 2.3-9.7 7.1-4.5 5.9-8.6-0.6-14.6-4.7-2.3-1.6-3.9-1.2-5.1 0v-9.6c1.2-1.1 2.8-1.6 5.1 0 6 4.2 10.1 10.6 14.6 4.7 3.6-4.8 7.2-7.7 9.7-7.1z"/><path class="l" d="m199.4 409.3v-16h38q0.4 0 0.8 0.3l4.9 4.1v7.2l-4.9 4.1q-0.4 0.3-0.8 0.3z"/><path class="p" d="m243.1 405.7v-8.8c0-0.2 0.2-0.4 0.4-0.4h1.7c0.2 0 0.4 0.2 0.4 0.4v8.8c0 0.2-0.2 0.4-0.4 0.4h-1.7c-0.2 0-0.4-0.2-0.4-0.4z"/><path class="k" d="m202.1 407.8v-12.9h35.2v12.9z"/><path class="j" d="m242.6 404.9v-7.2h1v7.2z"/><path class="j" d="m203.1 407v-4h1v4z"/><path class="j" d="m205.4 406.4v-1.9h1v1.9z"/><circle  cx="207.7" cy="424.9" r="8.3"/><circle class="v" cx="207.7" cy="424.9" r="5.3"/><path class="w" d="m207.7 424.9c-2.4 0-4.4-2-4.4-4.4v-9h8.8v9c0 2.4-2 4.4-4.4 4.4z"/><circle  cx="281.1" cy="424.9" r="8.3"/><circle class="v" cx="281.1" cy="424.9" r="5.3"/><path class="w" d="m281.1 424.9c-2.4 0-4.4-2-4.4-4.4v-9h8.7v9c0 2.4-1.9 4.4-4.3 4.4z"/><path class="w" d="m149.1 289.4h19.6l29.6 96.2-4.1 17.5q-0.1 0.4-0.2 0.8c-0.2 2.6 1.1 4 2.4 4.7 0.9 0.5 2 0.8 3 0.8h91.5v4.6h-92c-0.9 0-1.9-0.1-2.7-0.4-3.1-0.9-4.8-2.9-5.7-4.9-0.9-2.1-1.1-4.5-0.5-6.7l4.3-17.7-28.9-90.5h-16.3c-1.3 0-2.2-1-2.2-2.2 0-1.2 0.9-2.2 2.2-2.2z"/><path class="h" d="m157.7 293.8h-29.9c-1.3 0-2.2-1-2.2-2.2 0-1.2 0.9-2.2 2.2-2.2h29.9c1.3 0 2.2 1 2.2 2.2 0 1.2-0.9 2.2-2.2 2.2z"/><path fill-rule="evenodd" class="x" d="m243 311.5l-0.4 2.7-1.2 8.2-0.4 2.7-2.6 18.7-0.4 2.6-2.7 18.8-0.4 2.6-1.7 11.5-0.3 2.6h-65l-22.1-70.4zm-3.1 2.7h-90.5l2.6 8.2 0.8 2.7 5.9 18.7 0.8 2.6 5.9 18.8 0.9 2.6 3.5 11.5h60.7l1.7-11.5 0.3-2.6 2.7-18.8 0.4-2.6 2.7-18.7 0.4-2.7z"/><path class="x" d="m233.2 379.3l-0.3 2.6h-1.2v-2.6z"/><path class="x" d="m243 311.5l-0.4 2.7h-1.2v-2.7z"/><path class="x" d="m241.4 322.4l-0.4 2.7h-89.9v-2.7z"/><path class="x" d="m238.4 343.8l-0.4 2.6h-80.3v-2.6z"/><path fill-rule="evenodd" class="w" d="m282 311.5l-11.3 70.4h-37.8l0.3-2.6h22.6v-11.5h-20.9l0.4-2.6h20.5v-18.8h-17.8l0.4-2.6h17.4v-18.7h-14.8l0.4-2.7h14.4v-8.2h-13.2l0.4-2.7zm-11.8 56.3h-11.7v11.5h9.9zm3.4-21.4h-15.2v18.7h12.2zm3.5-21.4h-18.7v18.7h15.6zm0.5-2.7l1.3-8.1h-20.4v8.1z"/><path class="x" d="m235.3 365.2l-0.4 2.6h-69.6v-2.6z"/><path class="x" d="m180.7 380.6h-2.7v-67.7h2.7z"/><path class="x" d="m202.1 380.6h-2.7v-67.7h2.7z"/><path class="x" d="m223.5 380.6h-2.7v-67.7h2.7z"/><circle  cx="181.7" cy="424.9" r="8.3"/><circle class="v" cx="181.7" cy="424.9" r="5.3"/><path class="x" d="m181.7 424.9c-2.4 0-4.4-2-4.4-4.4v-9h8.8v9c0 2.4-2 4.4-4.4 4.4z"/><circle  cx="255.1" cy="424.9" r="8.3"/><circle class="v" cx="255.1" cy="424.9" r="5.3"/><path class="x" d="m255.1 424.9c-2.4 0-4.4-2-4.4-4.4v-9h8.7v9c0 2.4-1.9 4.4-4.3 4.4z"/><path class="x" d="m123 289.4h19.7l29.6 96.2-4.1 17.5q-0.1 0.4-0.2 0.8c-0.2 2.6 1.1 4 2.4 4.7 0.9 0.5 2 0.8 3 0.8h91.5v4.6h-92c-0.9 0-1.9-0.1-2.8-0.4-3-0.9-4.7-2.9-5.6-4.9-0.9-2.1-1.1-4.5-0.5-6.7l4.3-17.7-28.9-90.5h-16.4c-1.2 0-2.1-1-2.1-2.2 0-1.2 0.9-2.2 2.1-2.2z"/><path class="q" d="m105.2 199.1c0 0.9 0 1.9-0.3 2.7-1.2 3.3-5.9 5.4-9.1 6.1-4.1 0.8-8.3-0.3-11.5-2.9-2.5-2.2-4.2-5.2-4.9-8.4-0.7 0.1-1.8-0.1-2-0.2-0.9-0.4-1.8-1.1-2.3-2-0.7-0.9-0.9-2.2-0.5-3.3 0.4-1.5 1.9-2.6 3.4-2.2q0.2 0 0.5 0.2c-0.2-5 0.5-10.4 3.9-13.3 7.4-6.5 18-4.2 20.2 1.6 2.6 6.6 2.7 14.7 2.6 21.7z"/><ellipse class="j" cx="100.8" cy="188.9" rx=".9" ry="1.9"/><ellipse class="j" cx="92.6" cy="188.9" rx=".9" ry="1.9"/><path class="j" d="m100.3 194.8c-0.4 0.7-0.9 1.2-1.5 1.6-0.6 0.5-1.3 0.7-2.1 0.7-0.8 0-1.5-0.2-2.1-0.7-0.3-0.2-0.6-0.5-0.8-0.7q-0.4-0.4-0.7-0.9 0.5 0.3 0.9 0.7c0.3 0.2 0.5 0.4 0.8 0.5q0.9 0.5 1.9 0.6c0.7 0 1.3-0.2 1.9-0.5q0.9-0.5 1.7-1.3z"/><path class="j" d="m97.7 198.3c-0.3 0.2-0.6 0.3-1 0.3-0.4 0-0.7-0.1-1-0.3 0.4 0 0.7 0.1 1 0.1 0.3 0 0.7-0.1 1-0.1z"/><path class="j" d="m94.5 182.5c0 0.2-0.1 0.5-0.4 0.5l-0.1 0.1c-0.4 0.1-0.8 0-1.2 0q-0.6 0-1.1 0.1c-0.4 0.1-0.7 0.2-1 0.5-0.4 0.2-0.7 0.4-1 0.7-0.1 0.2-0.4 0.2-0.5 0.1-0.3-0.1-0.3-0.4-0.2-0.6 0.2-0.4 0.5-0.9 0.9-1.2 0.4-0.4 0.9-0.6 1.4-0.8q0.8-0.3 1.6-0.2c0.5 0 1 0.1 1.4 0.5q0.1 0.1 0.2 0.3z"/><path class="j" d="m99.1 182.2c0.4-0.4 0.9-0.5 1.4-0.5q0.8-0.1 1.6 0.2c0.5 0.2 1 0.4 1.4 0.8 0.4 0.3 0.7 0.8 0.9 1.2 0.1 0.2 0.1 0.5-0.2 0.6-0.1 0.1-0.3 0.1-0.5-0.1-0.3-0.3-0.6-0.5-1-0.7-0.3-0.3-0.6-0.4-1-0.5q-0.5-0.1-1.1-0.1c-0.4 0-0.8 0.1-1.2 0l-0.1-0.1c-0.3 0-0.4-0.3-0.4-0.5q0.1-0.2 0.2-0.3z"/><path class="j" d="m98.6 186q0.3 1.1 0.4 2.2c0.2 0.7 0.3 1.4 0.5 2.1q0.1 0.2 0.2 0.5c0 0.1 0.1 0.4 0.1 0.6 0.1 0.5-0.2 1-0.6 1.1-0.4 0.3-0.9 0.2-1.3 0.1q-0.5-0.2-1-0.6c0.7 0.3 1.5 0.5 2 0.1 0.2-0.2 0.4-0.4 0.3-0.7 0-0.1 0-0.2-0.1-0.4q-0.1-0.3-0.2-0.6-0.3-1.1-0.4-2.2 0-1.1 0.1-2.2z"/><path class="j" d="m76.4 192.2c0-0.4 0.1-0.8 0.5-1.2 0.4-0.3 0.9-0.2 1.3-0.1 0.5 0.2 0.9 0.5 1.1 0.8q0.5 0.5 0.7 1.1c0.1 0.2 0 0.4-0.1 0.4q-0.2 0.1-0.4 0v-0.1c-0.3-0.2-0.6-0.6-1-0.7q-0.2 0-0.4 0.1c-0.1 0.1-0.2 0.3-0.3 0.5-0.2 0.3-0.3 0.8 0.1 1 0.3 0.2 0.8 0.1 1.3 0.1-0.4 0.2-0.9 0.3-1.5 0.2-0.2-0.1-0.5-0.4-0.5-0.7q0-0.4 0.1-0.8c0.1-0.3 0.2-0.5 0.4-0.7 0.3-0.3 0.7-0.3 1-0.2 0.5 0.1 0.9 0.5 1.3 0.8l-0.6 0.4c-0.2-0.7-0.7-1.4-1.3-1.8-0.4-0.1-0.7-0.2-1 0-0.4 0.1-0.6 0.5-0.7 0.9z"/><path class="j" d="m90.6 179.6c-1.4-0.4-2.8-0.5-4.1 0.2-1.2 0.5-2.4 1.6-2.5 3.8-0.3 4.8 0.2 7.9-1.8 8-2 0.2-4-5.8-7.6-0.7q-1.9-1.6-1-5.7c0.9-4 0.2-6.4 0.2-7.7 0.1-1.8 3-5.6 5.7-3.1q1.2-6.1 8.5-8c7.3-1.8 10.8-3 11.3-4.2q1.4 3.3-1 6.2 4.9-0.8 5.5-3.4 2.5 2.9-0.6 6.6 3.2 1.3 3.2 6 0.1 4.6-1.9 7.3l-1.4-6.1q-7.4 2.4-12.5 0.8z"/><path class="q" d="m146.3 422.6c-0.2 0.3-0.5 0.5-0.8 0.6l-29.2 6.1c-1.1 0.3-2.2-0.3-2.6-1.4-0.5-1.3-1.2-4.3-1-7.3l-28.6-129.3c2.6-0.6 5.3-1.5 8-1.8 3.4-0.5 6.9-0.6 10.3-1 2.4-0.3 4.7-0.7 6.9-1.2q1.6 4.1 3 9c5.5 20 12.4 113.1 13.1 122 1.5 0.6 12.8 4.3 19.4 2 0.4-0.1 0.9-0.1 1.2 0.2 0.4 0.4 0.8 1.1 0.3 2.1z"/><path class="j" d="m118 334.5l-23.5 3.6-0.8-3.6z"/><path class="m" d="m128.6 419.7l-8.4 0.8-1 0.1-3.8 0.4-1 0.1-1.3 0.1-0.2-0.5-0.1-0.5-0.7-2.4-0.6-2.1-5-17.7-0.3-1-0.5-1.6 1.4-0.3 16.2-3.2 1.3-0.3 0.3 2.4 0.1 1 2.8 19.1 0.7 5.2z"/><path class="j" d="m125 395l-1.4 0.2-15.9 2.6-1.2 0.2-0.3-1 1.3-0.2 16-2.6 1.4-0.2z"/><path class="j" d="m113.9 414.4q-0.1 0-0.3-0.1l-0.3-0.2c-0.2-0.2-0.3-0.5-0.1-0.7 0.1-0.2 0.5-0.3 0.7-0.2l0.3 0.3c0.2 0.1 0.3 0.4 0.1 0.6q-0.1 0.3-0.4 0.3z"/><path class="j" d="m112.5 412.3q-0.1 0-0.3 0l-0.3-0.2c-0.2-0.2-0.3-0.5-0.1-0.7 0.1-0.3 0.5-0.3 0.7-0.2l0.3 0.2c0.2 0.2 0.3 0.5 0.1 0.7q-0.1 0.2-0.4 0.2z"/><path class="j" d="m115.4 413.2q-0.2 0-0.3-0.1l-0.3-0.2c-0.2-0.2-0.3-0.5-0.1-0.7 0.1-0.2 0.4-0.3 0.6-0.2l0.3 0.3c0.3 0.1 0.3 0.4 0.2 0.6q-0.2 0.3-0.4 0.3z"/><path class="g" d="m147.7 422.1c0 0.5-0.4 0.9-0.9 1-5 1.2-30.7 6.9-32.5 6.5-0.5-0.2-0.9-0.6-1.2-1.3q-0.2-0.5-0.4-1c-0.5-1.9-0.5-4.4-0.4-5.4 0.2-1.2-0.7-4.6-1.1-5.8 0-0.2 0.1-0.4 0.3-0.4q0 0 0.1 0l13.5-1.3 2.7-0.3h0.1c0.2 0 0.4 0.1 0.4 0.3 0.7 6.7 15 3.6 17.5 3.8 1.1 0 1.6 0.9 1.8 2q0.1 0.5 0.1 1 0 0.5 0 0.9z"/><path class="j" d="m147.7 421.2l-1.2 0.2-32.7 6.7-0.7 0.2q-0.2-0.5-0.4-1l0.8-0.1 32.5-6.7 1.6-0.3q0.1 0.5 0.1 1z"/><path fill-rule="evenodd" class="j" d="m117.3 424.5c-1.6 0-2.9-1.6-2.9-3.6 0-2 1.3-3.6 2.9-3.6 1.6 0 2.9 1.6 2.9 3.6 0 2-1.3 3.6-2.9 3.6zm0-6.2c-1.1 0-1.9 1.2-1.9 2.6 0 1.4 0.8 2.6 1.9 2.6 1.1 0 1.9-1.2 1.9-2.6 0-1.4-0.8-2.6-1.9-2.6z"/><path class="c" d="m120.9 334.5h-30l-0.4-3.2-0.1-1-1.5-12.9-6.1-50.5 11.1 0.2 12.6 0.3 13.4 62.9 0.3 1z"/><path class="j" d="m120.2 331.3h-29.7l-0.1-1h29.5z"/><path class="j" d="m88.9 317.4l4.2-27.6-2.9 37.7z"/><path class="j" d="m93.9 328.3q-0.1 0-0.3-0.1l-0.3-0.1c-0.2-0.2-0.3-0.5-0.1-0.7 0.1-0.3 0.4-0.3 0.7-0.2l0.3 0.2c0.2 0.2 0.3 0.5 0.1 0.7q-0.1 0.2-0.4 0.2z"/><path class="j" d="m92.5 326.3q-0.1 0-0.3-0.1l-0.3-0.2c-0.2-0.1-0.3-0.4-0.1-0.7 0.1-0.2 0.4-0.3 0.7-0.1l0.3 0.2c0.2 0.2 0.3 0.5 0.1 0.7q-0.1 0.2-0.4 0.2z"/><path class="j" d="m95.4 327.1q-0.2 0-0.3-0.1l-0.3-0.2c-0.3-0.1-0.3-0.4-0.2-0.6 0.2-0.3 0.5-0.3 0.7-0.2l0.3 0.2c0.3 0.2 0.3 0.5 0.2 0.7q-0.2 0.2-0.4 0.2z"/><path class="q" d="m91 279.3l-0.8 5.8-7.6 58.5c-0.4 3.5-1.5 6.9-3.3 10l-20.7 37.2-14.8 27c0.5 0.8 6.2 9.8 13.1 11.9 0.4 0.2 0.7 0.5 0.8 0.9 0.1 0.5 0.1 1.3-1 1.9-0.3 0.1-0.7 0.1-1 0l-27.2-12.4c-1-0.4-1.5-1.6-1.2-2.6 0.4-1.3 1.5-4.1 3.4-6.3 1.7-4.2 15.9-38.5 28.9-68.6 0.5-19 1.2-36.1 2-43.6q2.3-21.7 15.8-31.1z"/><path class="j" d="m59.8 335.3h23.9l-24 3.7z"/><path class="m" d="m57.3 394.6l-1.1 2-0.5 0.9-9.1 17.1-2.7 5-13.4-8 2-5.4 6.6-17.7 0.4-0.9 0.4-1.2z"/><path class="j" d="m56.2 396.6l-0.5 0.9-16.6-9 0.4-0.9z"/><path class="j" d="m36.8 407.1q-0.1 0-0.2-0.1l-0.3-0.2c-0.3-0.2-0.3-0.5-0.2-0.7 0.2-0.2 0.5-0.3 0.7-0.2l0.3 0.3c0.2 0.1 0.3 0.4 0.1 0.6q-0.1 0.3-0.4 0.3z"/><path class="j" d="m35.4 405q-0.1 0-0.2 0l-0.3-0.2c-0.3-0.2-0.3-0.5-0.2-0.7 0.2-0.3 0.5-0.3 0.7-0.2l0.3 0.2c0.2 0.2 0.3 0.5 0.2 0.7q-0.2 0.2-0.5 0.2z"/><path class="j" d="m38.3 405.9q-0.2 0-0.3-0.1l-0.3-0.2c-0.2-0.2-0.3-0.5-0.1-0.7 0.1-0.2 0.4-0.3 0.7-0.2l0.3 0.3c0.2 0.1 0.3 0.4 0.1 0.6q-0.2 0.3-0.4 0.3z"/><path class="g" d="m58.7 431.7q-0.3 0.4-0.6 0.8-0.1 0.2-0.2 0.3c-0.3 0.4-0.9 0.6-1.4 0.3-4.7-2-28.7-12.6-29.9-14.1-0.5-0.5-0.4-1.4-0.1-2.4q0.2-0.4 0.4-0.9c0.7-1.6 2-3.3 2.6-4 0.9-0.9 2.1-4.1 2.5-5.3 0.1-0.2 0.3-0.3 0.5-0.2q0.1 0 0.1 0l14 8.4h0.1c0.2 0.1 0.2 0.4 0.1 0.6-3.4 5.8 9.9 11.7 11.9 13.3 1 0.9 0.6 2.2 0 3.2z"/><path class="j" d="m58.7 431.7q-0.3 0.4-0.6 0.8l-31.6-15.9q0.2-0.4 0.4-0.9z"/><path fill-rule="evenodd" class="j" d="m32.9 415.6q-0.9 0-1.6-0.5c-0.7-0.5-1-1.3-1-2.2 0-0.9 0.3-1.7 0.9-2.5 1.2-1.6 3.2-2 4.5-1 0.6 0.5 1 1.2 1 2.1 0 0.9-0.3 1.8-0.9 2.5-0.6 0.8-1.3 1.3-2.2 1.5q-0.4 0.1-0.7 0.1zm1.2-5.8c-0.7 0-1.5 0.5-2.1 1.2-0.5 0.6-0.7 1.2-0.7 1.9 0 0.6 0.2 1.1 0.6 1.4 0.4 0.3 0.9 0.4 1.5 0.2 0.6-0.1 1.2-0.5 1.6-1.1 0.5-0.6 0.7-1.2 0.7-1.9 0-0.5-0.2-1-0.6-1.3q-0.4-0.4-1-0.4z"/><path class="c" d="m93.9 266.9q0 0.1 0 0.2c-0.3 3.8-3.1 31.4-5 50.3-0.5 5.2-1 9.7-1.3 12.9q-0.1 0.5-0.1 1-0.3 2.5-0.4 4h-28.8q-0.1-2.1 0-4 0-0.5 0-1 0.3-37.2 9.6-63.4z"/><path class="j" d="m58.3 330.3h29.3q-0.1 0.5-0.1 1h-29.2q0-0.5 0-1z"/><path class="j" d="m69 273.1h-1v-4.2h1z"/><path class="j" d="m73 273.1h-1v-4.2h1z"/><path class="j" d="m76.9 273.1h-1v-4.2h1z"/><path class="j" d="m80.8 273.1h-1v-4.2h1z"/><path class="j" d="m84.7 273.1h-1v-4.2h1z"/><path class="j" d="m88.7 273.1h-1v-4.2h1z"/><path class="j" d="m92.6 273.1h-1v-4.2h1z"/><path class="j" d="m96.5 273.1h-1v-3h1z"/><path fill-rule="evenodd" class="j" d="m66 319.8q-0.3 0-0.7 0-1.8-0.4-3-2.1c-3.8-5.7-0.2-21.3-0.1-21.9l0.1-0.4h13l-0.1 0.5c0 0.8-1.2 18.7-6.6 23q-1.2 0.9-2.6 0.9zm-2.9-23.4c-0.5 2.4-3.2 15.9 0 20.7q0.9 1.4 2.4 1.7 1.3 0.2 2.4-0.7c4.6-3.6 6.1-18.7 6.3-21.7z"/><path class="j" d="m68.6 279.7q-0.1 0-0.2-0.1l-0.3-0.2c-0.3-0.1-0.3-0.4-0.2-0.7 0.2-0.2 0.5-0.3 0.7-0.1l0.3 0.2c0.3 0.1 0.3 0.4 0.2 0.7q-0.2 0.2-0.5 0.2z"/><path class="j" d="m67.3 277.7q-0.2 0-0.3-0.1l-0.3-0.2c-0.3-0.2-0.3-0.5-0.2-0.7 0.2-0.2 0.5-0.3 0.7-0.1l0.3 0.2c0.3 0.1 0.3 0.4 0.2 0.7q-0.2 0.2-0.4 0.2z"/><path class="j" d="m70.1 278.5q-0.1 0-0.3-0.1l-0.3-0.2c-0.2-0.1-0.3-0.5-0.1-0.7 0.1-0.2 0.4-0.3 0.7-0.1l0.3 0.2c0.2 0.1 0.3 0.4 0.1 0.7q-0.1 0.2-0.4 0.2z"/><path class="u" d="m67.1 245.5c-8 1.2-8.9-11.2-6.5-22.7q2.3-11.5 24.3-8.2c1.1 6.8-9.8 29.8-17.8 30.9z"/><path class="j" d="m66.4 245.6l-1-19.5q-5.3 13.2 1 19.5z"/><path class="j" d="m62.9 227.7q-0.2 0-0.3 0l-0.3-0.2c-0.2-0.2-0.3-0.5-0.1-0.7 0.1-0.3 0.4-0.3 0.6-0.2l0.4 0.2c0.2 0.2 0.2 0.5 0.1 0.7q-0.2 0.2-0.4 0.2z"/><path class="j" d="m61.5 225.7q-0.2 0-0.3-0.1l-0.3-0.2c-0.2-0.1-0.3-0.4-0.1-0.6 0.1-0.3 0.4-0.3 0.7-0.2l0.3 0.2c0.2 0.2 0.2 0.5 0.1 0.7q-0.2 0.2-0.4 0.2z"/><path class="j" d="m64.3 226.5q-0.1 0-0.2 0l-0.3-0.2c-0.3-0.2-0.3-0.5-0.2-0.7 0.2-0.3 0.5-0.3 0.7-0.2l0.3 0.2c0.2 0.2 0.3 0.5 0.2 0.7q-0.2 0.2-0.5 0.2z"/><path class="q" d="m66.2 233.5c-1.3-7.1 0.6-10.9 2.8-12.9 1.5-1.5 3.6-2.3 5.7-2.3 2-0.1 3.6-0.5 4.9-1.1 2.1-6.7 0-19.2-0.2-20.8q-0.1-0.1-0.1-0.2l17.2 9.7c-0.3 0.5-0.4 1.1-0.5 1.9-0.2 1.5 0.1 3.5 0.4 5.3 0.3 2 0.8 3.7 1 4.4 1.8 2.2 4.3 3 8 5.3 5.6 3.3 2.1 12.7 1.2 22.1-0.7 6.8-1.1 15.1-1.3 20.1h-35.2c0-8.4-1.9-19.4-3.9-31.5z"/><path class="j" d="m96.4 213.1c-9.4 1.2-14.1-10-14.3-10.4 1.7 2.7 4.2 4.1 6.7 4.8 3 0.8 5.9 0.5 7.1 0.3q0.1 0 0.1 0c-0.2 1.5 0.1 3.5 0.4 5.3z"/><path class="g" d="m103.8 221q5.3 1.7 5 7.5l-2.3 38.9-38.6-0.5q-1-12.3-1-13.4c-0.1-1.1-1-15.7-1.5-24.3-0.5-8.7 3.8-11.1 6.7-11.2q2.8-0.1 7.5-0.8 13.2 14.5 17.8 0.3 1.1 1.9 6.4 3.5z"/><path class="u" d="m77.3 215q4.9 4.7 6.6 6c1.7 1.3-0.9 5.9-4.1 1.4q-3.3-4.5-8.1-4.8z"/><path class="u" d="m97.3 217.2l-0.4-1.8q2.9 0.4 3.4 1.8c0.5 1.4-1.7 6.8-3.4 5.9q-2.5-1.3 0.5-5.6"/><path class="j" d="m70.9 239q9.2 16.1 23 28.2l-9.7-0.1z"/><path class="j" d="m86.3 235.2l-1-0.1c0.8-8-2.3-12.2-2.4-12.3l0.8-0.6c0.2 0.2 3.5 4.6 2.6 13z"/><path class="j" d="m95.6 232.9c-1-4.6 0.8-11.3 0.9-11.6l1 0.3c0 0-1.8 6.8-0.9 11.1z"/><path class="j" d="m97.4 243.9l-0.8-0.7 5.3-5.3 0.7 0.7z"/><path class="j" d="m100 244.9l-0.7-0.7 3-3.1 0.8 0.7z"/><path class="q" d="m125.2 283l-4 4.4c-28.2-13.8-45.8-42.6-52.6-53.7-2.1-3.5-2.8-6.4-2.7-8.7 0.2-5.9 7.3-8.7 11.7-4.8 1.3 1.2 2.7 2.9 4.2 5.1q8.7 13.4 43.4 57.7z"/><path class="g" d="m74.3 218c1.9 0.3 3.5 1.4 4.5 2.9l39.6 52.6-5.3 10.4q-17.4-13.4-30.5-28.3c-9.7-11-15.8-24.1-16.7-26.7-0.7-2.3-0.6-4.1-0.1-5.6 1.2-3.5 4.8-5.7 8.4-5.3q0.1 0 0.1 0z"/><path class="q" d="m136.5 290.7q-0.1 0.9-0.5 1.9c-0.8 2.3-4.8 0.9-6.9 0-0.7-0.3-1.3-0.8-1.6-1.4q-1.2-2.8-6.3-3.8l4-4.4q5.5 0.2 9 2.8c1.6 1.1 2.5 3 2.3 4.9z"/><path class="u" d="m116.3 271.5c0.4-0.3 0.8-0.2 1.1 0.1 1.2 1.1 3.8 3.8 4.2 4.8 0.5 1.4-4.1 9.9-5.8 9.6-1.4-0.2-4.5-2.9-5.4-3.8q-0.3-0.2-0.3-0.5c-0.4-5.2 4.5-9 6.2-10.2z"/><path class="j" d="m115 284.6l-4.2-3.1 0.6-0.8 4.2 3.1z"/><path class="j" d="m117.1 281.9l-5.1-4.2 0.6-0.8 5.2 4.2z"/><path class="j" d="m118.1 278.6l-4.1-3 0.6-0.8 4.1 3z"/><path class="j" d="m120 276.7l-4-3.8 0.7-0.7 4 3.8z"/><path class="j" d="m106.7 274.4q-0.2 0-0.3-0.1l-0.3-0.2c-0.2-0.1-0.3-0.4-0.1-0.7 0.1-0.2 0.4-0.3 0.6-0.1l0.4 0.2c0.2 0.1 0.2 0.5 0.1 0.7q-0.2 0.2-0.4 0.2z"/><path class="j" d="m105.3 272.4q-0.2 0-0.3-0.1l-0.3-0.2c-0.2-0.1-0.3-0.5-0.1-0.7 0.1-0.2 0.4-0.3 0.7-0.1l0.3 0.2c0.2 0.1 0.2 0.4 0.1 0.7q-0.2 0.2-0.4 0.2z"/><path class="j" d="m108.1 273.2q-0.1 0-0.2-0.1l-0.3-0.2c-0.3-0.1-0.3-0.4-0.2-0.7 0.2-0.2 0.5-0.3 0.7-0.1l0.3 0.2c0.2 0.1 0.3 0.5 0.1 0.7q-0.1 0.2-0.4 0.2z"/><path class="j" d="m80.8 236q-0.2 0-0.3 0l-0.3-0.2c-0.3-0.2-0.3-0.5-0.2-0.7 0.2-0.3 0.5-0.3 0.7-0.2l0.3 0.2c0.3 0.2 0.3 0.5 0.2 0.7q-0.2 0.2-0.4 0.2z"/><path class="j" d="m79.4 234q-0.2 0-0.3-0.1l-0.3-0.2c-0.3-0.1-0.3-0.4-0.2-0.7 0.2-0.2 0.5-0.3 0.7-0.1l0.3 0.2c0.3 0.2 0.3 0.5 0.2 0.7q-0.2 0.2-0.4 0.2z"/><path class="j" d="m82.2 234.8q-0.1 0-0.3 0l-0.3-0.2c-0.2-0.2-0.3-0.5-0.1-0.7 0.1-0.3 0.5-0.3 0.7-0.2l0.3 0.2c0.2 0.2 0.3 0.5 0.1 0.7q-0.1 0.2-0.4 0.2z"/><path class="y" d="m550 406.6c0 4-13.9 4-44.4 4-30.4 0-65.9 0-65.9-4 0-3.9 24.7-7.1 55.2-7.1 30.4 0 55.1 3.2 55.1 7.1z"/><path class="q" d="m492.1 175.8q0 0.3 0 0.6c-0.1 0.9-0.1 1.9-0.4 2.7-1.2 3.3-5.9 5.4-9.1 6.1-4.1 0.8-8.2-0.3-11.5-2.9-2.5-2.2-4.2-5.2-4.9-8.4-0.7 0-1.7-0.1-2-0.2-0.9-0.4-1.8-1.1-2.3-2-0.6-0.9-0.9-2.2-0.5-3.3 0.4-1.5 1.9-2.6 3.4-2.2q0.2 0 0.5 0.2c-0.2-5 0.5-10.4 3.9-13.4 7.4-6.4 18-4.1 20.2 1.6 1.8 4.5 2.4 9.8 2.6 14.8 0.1 2.2 0.1 4.3 0.1 6.4z"/><path class="z" d="m492.1 175.8q-0.4 0.1-0.9 0.1c-1.8 0-3.3-1.5-3.3-3.3 0-1.8 1.5-3.3 3.3-3.3q0.4 0 0.8 0.1c0.1 2.2 0.1 4.3 0.1 6.4z"/><circle class="z" cx="474.9" cy="172.6" r="3.3"/><ellipse class="j" cx="487.2" cy="166.2" rx=".9" ry="1.9"/><path class="j" d="m489.1 163.7q-0.2 0.5-0.6 0.8-0.5 0.4-1 0.5h-0.1c-0.1 0.1-0.3 0-0.4-0.2 0-0.2 0.1-0.4 0.3-0.5q0 0 0.1 0c0.5 0.1 1.1-0.3 1.5-0.7q0.1-0.1 0.2 0 0 0 0 0.1z"/><ellipse class="j" cx="479" cy="166.2" rx=".9" ry="1.9"/><path class="j" d="m477.2 163.6c0.4 0.4 1 0.8 1.5 0.7 0.2 0 0.4 0.2 0.4 0.4 0 0.2-0.1 0.3-0.3 0.3q-0.1 0-0.1 0-0.6-0.1-1-0.5-0.4-0.3-0.7-0.8 0-0.1 0.1-0.2 0.1 0 0.1 0.1z"/><path class="j" d="m486.6 172.1c-0.3 0.6-0.8 1.2-1.4 1.6-0.6 0.5-1.4 0.7-2.1 0.7-0.8 0-1.6-0.2-2.1-0.7-0.4-0.2-0.6-0.5-0.9-0.7q-0.3-0.4-0.6-0.9 0.4 0.3 0.8 0.7c0.3 0.2 0.6 0.4 0.9 0.5q0.9 0.5 1.9 0.6c0.6 0 1.3-0.2 1.9-0.5q0.8-0.5 1.6-1.3z"/><path class="j" d="m484.1 175.5c-0.3 0.3-0.7 0.4-1 0.4-0.4 0-0.8-0.1-1-0.4 0.3 0.1 0.6 0.2 1 0.2 0.3 0 0.6-0.1 1-0.2z"/><path class="j" d="m480.8 159.8c0.1 0.2-0.1 0.5-0.3 0.5l-0.1 0.1c-0.4 0.1-0.8 0-1.2 0q-0.6 0-1.1 0.1c-0.4 0.1-0.8 0.2-1.1 0.5-0.3 0.2-0.6 0.4-0.9 0.7h-0.1c-0.1 0.2-0.3 0.2-0.5 0.1-0.2-0.1-0.3-0.4-0.2-0.6 0.3-0.4 0.6-0.9 1-1.2 0.4-0.4 0.8-0.7 1.4-0.8q0.7-0.3 1.5-0.2c0.5 0 1 0.1 1.5 0.5q0.1 0.1 0.1 0.3z"/><path class="j" d="m485.4 159.5c0.5-0.4 1-0.5 1.5-0.5q0.8-0.1 1.6 0.2c0.5 0.1 0.9 0.4 1.3 0.8 0.4 0.3 0.7 0.8 1 1.2 0.1 0.2 0 0.5-0.2 0.6-0.2 0.1-0.4 0.1-0.5-0.1h-0.1c-0.3-0.3-0.6-0.5-0.9-0.7-0.3-0.3-0.7-0.4-1-0.5q-0.6-0.1-1.2-0.1c-0.3 0-0.7 0.1-1.1 0l-0.2-0.1c-0.2 0-0.4-0.3-0.3-0.5q0-0.2 0.1-0.3z"/><path class="j" d="m483.3 163.3q0.2 1.1 0.4 2.2c0.1 0.7 0.3 1.4 0.5 2.1q0.1 0.2 0.1 0.5c0.1 0.1 0.2 0.4 0.2 0.6 0 0.5-0.3 1-0.7 1.1-0.4 0.3-0.8 0.2-1.2 0.1q-0.6-0.2-1-0.6c0.7 0.3 1.5 0.5 2 0.1 0.2-0.2 0.3-0.4 0.3-0.7 0-0.1-0.1-0.2-0.1-0.4q-0.2-0.3-0.2-0.6-0.3-1.1-0.4-2.2-0.1-1.1 0.1-2.2z"/><path class="j" d="m462.8 169.7c-0.1-0.4 0.1-0.9 0.4-1.2 0.4-0.3 1-0.3 1.4-0.1 0.4 0.1 0.8 0.4 1.1 0.7q0.4 0.6 0.6 1.2c0.1 0.1 0 0.3-0.1 0.4q-0.2 0-0.4-0.1c-0.3-0.3-0.6-0.6-1-0.7q-0.2-0.1-0.4 0c-0.1 0.1-0.2 0.3-0.3 0.5-0.1 0.4-0.2 0.8 0.1 1 0.3 0.2 0.9 0.2 1.3 0.1-0.4 0.2-0.9 0.4-1.4 0.2-0.3-0.1-0.5-0.4-0.6-0.7q0-0.4 0.1-0.8c0.1-0.2 0.2-0.5 0.5-0.7 0.2-0.2 0.6-0.3 0.9-0.2 0.5 0.2 0.9 0.5 1.3 0.9l-0.5 0.3c-0.3-0.7-0.8-1.4-1.4-1.7-0.3-0.2-0.7-0.3-1-0.1-0.3 0.2-0.5 0.6-0.6 1z"/><path class="g" d="m488.4 155.1c-1.3-0.8-3.1-1-4.9 2q-4-4.1-9.3-2.3-2.4 0.9-1.8 5c0.4 2.3 0 4.8-1.3 6.7-0.7 1-1.6 1.8-2.8 2.4q-0.6 0.5-2.3-1.6c-1.2-1.4-3.4-1.2-4.3 0.4q0 0 0 0c-0.4 0.8-0.5 1.7-0.3 2.5 0.3 1.4 1.4 3.4 4.8 3.7q2.5 13.9 0.3 20.7-3.3-0.1-6.9 1c-2.4 0.7-4.5 2.3-5.8 4.5-1.1 1.8-2.4 4.1-2.7 5.5q-4.7-3-3.6-8.2c1.1-5.2 5.4-4.1 4.6-8.9-0.7-4.8 1.8-6.1 4.4-8.2 2.6-2.1 1.6-9.2 1.5-12.1-0.1-3-1.2-12.4 6.9-14q1.5-8.5 15.5-8c14 0.5 13.5 11.2 13.4 14.6-0.1 3.3-0.8 18.9 2.5 22 3.2 3 3.1 5.8 2.1 8.4-1 2.6 2 5.7 4.1 7.4 2.1 1.8 1 8.3-3 9.4l-3.1-3.8c-2-2.5-4.3-4.5-7-6.1l-4.9-2.9-0.3-0.4q-1.7-5.7-1.4-9.7 4.4-0.8 7.2-3.6c1.1-1.1 1.7-2.5 1.9-4 0.2-1.9 0.3-5.1 0-9.9q-0.8-6.3-1.4-9.5c-0.3-1.2-1-2.4-2.1-3z"/><path class="q" d="m504.6 406.3c0.3 0.4 0.5 1.2-0.2 2.1-0.2 0.2-0.5 0.4-0.9 0.4h-29.8c-1.1 0-2.1-0.8-2.2-1.9-0.2-0.9 0.6-3.8 1.3-5.8q0.7-2.3 0.7-4.6l-1.6-136.3h22.9c1.8 4.2 3.2 10 3.7 18q1.4 20.7-11.9 122.1 9.4 6.5 16.9 5.5c0.4 0 0.8 0.1 1.1 0.5z"/><path class="j" d="m473.2 370.5h17.1l-17.1 6.6"/><path class="l" d="m490.5 248.3q9.1 12.5 9 27.8-0.1 15.2-8.7 94.4h-19.6l-1.6-122.2z"/><path class="j" d="m488.7 363.6q-0.1 0-0.2-0.1l-0.3-0.2c-0.3-0.1-0.3-0.5-0.2-0.7 0.2-0.2 0.5-0.3 0.7-0.1l0.3 0.2c0.2 0.1 0.3 0.4 0.2 0.7q-0.2 0.2-0.5 0.2z"/><path class="j" d="m487.3 361.6q-0.1 0-0.2-0.1l-0.3-0.2c-0.3-0.2-0.3-0.5-0.2-0.7 0.2-0.2 0.5-0.3 0.7-0.2l0.3 0.2c0.2 0.2 0.3 0.5 0.2 0.7q-0.2 0.3-0.5 0.3z"/><path class="j" d="m490.2 362.4q-0.2 0-0.3-0.1l-0.3-0.2c-0.2-0.2-0.3-0.5-0.1-0.7 0.1-0.2 0.4-0.3 0.7-0.1l0.3 0.2c0.2 0.1 0.3 0.4 0.1 0.7q-0.1 0.2-0.4 0.2z"/><path class="j" d="m488.3 396.6l-0.2 3 19.6 7.3c0.7 0.3 0.8 1.3 0.1 1.7q-0.2 0.2-0.4 0.2h-34c-1.7 0-3-1.4-2.9-3.1l0.5-8.7z"/><path class="q" d="m493.5 406.3c0.3 0.4 0.6 1.2-0.1 2.1-0.3 0.3-0.6 0.4-0.9 0.4h-29.9c-1.1 0-2.1-0.8-2.2-1.9-0.2-1.3-0.3-4.3 0.5-7.1-0.6-4.7-11.2-100.3-11.6-121.6-0.1-7.2 1.2-13.2 2.9-18h23.9l-0.6 140.1q9.4 6.5 16.9 5.5c0.4 0 0.9 0.1 1.1 0.5z"/><path class="j" d="m473.2 370.5h2.5l-17.2 7.6-0.8-7.6z"/><path class="l" d="m477.7 248.3l-1.6 122.2h-19.6q-7.7-78.7-7.8-93.9-0.2-15.3 8.1-28.3z"/><path class="j" d="m459.9 367.5q-0.2 0-0.3 0l-0.3-0.2c-0.2-0.2-0.3-0.5-0.2-0.7 0.2-0.3 0.5-0.3 0.7-0.2l0.3 0.2c0.3 0.2 0.3 0.5 0.2 0.7q-0.2 0.2-0.4 0.2z"/><path class="j" d="m458.5 365.5q-0.2 0-0.3-0.1l-0.3-0.2c-0.2-0.1-0.3-0.4-0.2-0.7 0.2-0.2 0.5-0.3 0.7-0.1l0.3 0.2c0.3 0.2 0.3 0.5 0.2 0.7q-0.2 0.2-0.4 0.2z"/><path class="j" d="m461.3 366.3q-0.1 0-0.3-0.1l-0.3-0.1c-0.2-0.2-0.2-0.5-0.1-0.7 0.2-0.3 0.5-0.3 0.7-0.2l0.3 0.2c0.2 0.2 0.3 0.5 0.1 0.7q-0.1 0.2-0.4 0.2z"/><path class="j" d="m476.9 396.6l-0.3 3 19.7 7.3c0.7 0.3 0.8 1.3 0.1 1.7q-0.2 0.2-0.5 0.2h-33.9c-1.7 0-3-1.4-2.9-3.1l0.5-8.7z"/><path class="q" d="m560.8 255q-0.6 0.9-7.3 0.9 7.3 2 6.4 2.7-0.9 0.7-6.8 0.1c2.5 1 3.4 1.8 3.7 2.2 0.1 0.3 0 0.6-0.3 0.6-3-0.1-8.6-2.8-11.7-4.4q-1-0.3-2.1-0.9-5.3-0.4-10.5-1.4c-8-1.7-15.6-4.3-22.5-7.4-2.1-0.9-3.8-2.2-5.3-3.9-10-11.6-16.8-23.2-20.4-29.4q-0.2-0.4-0.4-0.8c-1.7-3.2-2.2-5.8-2.1-8 0.3-5.9 7.5-8.6 11.7-4.5 1.3 1.2 2.7 2.9 4.1 5.2 3.6 5.7 11.7 17.1 19.9 28.3 11.8 7.1 22.8 13.6 26.4 15.7 3.9-2.8 7.6-3.6 9.4-4 1.3-0.3 1.8 0.4 1.9 0.9 0.1 0.3 0 0.5-0.3 0.6-1.2 0.3-3.5 1.4-3.7 2.4-0.1 1 9.7 0.7 9.9 2.1q0 0.6-7 1.1 7.5 1 7 1.9z"/><path class="h" d="m489 198.4c1.8 0.2 3.8 1.2 4.9 2.7l14 17.5-15.2 9.8q-9.3-12.6-11.7-18.8c-0.8-2.2-0.7-4-0.3-5.5 1-3.6 4.5-5.9 8.2-5.7q0 0 0.1 0z"/><path class="j" d="m506.5 219.5l-9.9 14.1-2.1-2.9 1.3-4.3q3-11.7-6.2-19.2c11.3 7.6 9.2 17.2 9.2 17.2z"/><path class="q" d="m496.3 222.7q-2.2 9.6-6.5 27.2h-32.4c1-8.7-2-24.8-4.4-39.1-1.2-7.1 0.6-10.9 2.8-13 1.5-1.4 3.6-2.2 5.7-2.2 2-0.1 3.6-0.5 4.9-1.1 2.1-6.7 0.1-19.2-0.2-20.8q0-0.1 0-0.2l17.1 9.7c-0.2 0.5-0.4 1.1-0.5 1.9-0.1 1.5 0.1 3.5 0.4 5.3 0.4 2 0.8 3.7 1 4.4 1.8 2.2 4.3 3 8 5.3 5.6 3.3 6.2 13 4.1 22.6z"/><path class="j" d="m483.2 190.4c-9.3 1.2-14.1-10-14.3-10.4 1.8 2.7 4.3 4.1 6.7 4.8 3 0.8 5.9 0.5 7.2 0.3q0 0 0 0c-0.1 1.5 0.1 3.5 0.4 5.3z"/><path class="k" d="m483.7 296.9h-32.4c-1 0-1.8-1-1.7-2l1.2-8 0.2-1 1-6.6 0.1-1 1.2-8c0.1-0.8 0.9-1.4 1.7-1.4h25c0.9 0 1.6 0.6 1.7 1.4l1.2 8 0.2 1 0.9 6.6 0.1 0.5 0.1 0.5 1.2 8c0.1 1-0.7 2-1.7 2z"/><path class="k" d="m460 270.1l-2.3-6.3c-0.1-0.2 0-0.4 0.3-0.5q0 0 0-0.1h0.1c3.2-0.4 6.3-0.5 9.4-0.6 3.2 0 6.3 0.2 9.4 0.6h0.1c0.2 0.1 0.4 0.3 0.4 0.6q-0.1 0-0.1 0.1l-3.4 6.3c-0.1 0.2-0.4 0.3-0.6 0.1-0.2-0.1-0.3-0.3-0.2-0.6l3.4-6.2 0.4 0.6c-3.1 0.5-6.2 0.6-9.4 0.6-3.1 0-6.2-0.1-9.4-0.6l0.4-0.6 2.4 6.3c0.1 0.2 0 0.5-0.3 0.6-0.2 0.1-0.5-0.1-0.6-0.3z"/><path class="i" d="m484.1 286.4h-10.5c-1 3.2-3.3 5.5-6.1 5.5-2.7 0-5.1-2.3-6-5.5h-10.6l0.1-0.5 1-6.6v-0.5h10c1.1-2.4 3.2-4.1 5.5-4.1 2.4 0 4.4 1.7 5.5 4.1h10l0.1 0.5 0.9 6.6z"/><path class="g" d="m503.8 298.1h-16.1c-1 0-1.8-0.8-1.8-1.8v-29.9c0-0.5 0.2-0.9 0.6-1.2l6.9-5.5h4.8l6.9 5.5c0.3 0.3 0.5 0.7 0.5 1.2v29.9c0 1-0.8 1.8-1.8 1.8z"/><rect class="k" x="493" y="256.9" width="5.6" height="2.7" rx=".5"></rect><path class="k" d="m501.7 286.8h-11.9v-17.2h11.9z"/><path class="j" d="m501 285.9h-4.5v-1h4.5z"/><path class="j" d="m501 283.9h-2.9v-1h2.9z"/><path class="j" d="m497.5 265.9h-10.2v-1h10.2z"/><path class="h" d="m473.1 258.5l18.3 29.1-13.5 8.4-18.2-29.1z"/><path class="h" d="m473.2 258.5l-13.6 8.5-2.2-1.7 15.2-9.6z"/><path class="h" d="m477.9 296.1l13.5-8.5 2.3 1.7-15.3 9.5z"/><path class="g" d="m479.7 269l5.4 8.6c-1 3.3-6.9 1.9-11.7 2.7-2.2 0.3-3.1 1.6-3.3 3.2l-5.4-8.6c0.2-1.6 1.1-2.9 3.3-3.2 4.8-0.8 10.7 0.6 11.7-2.7z"/><path class="j" d="m472.6 259.4l-11.8 7.4-0.5-0.7 11.8-7.5z"/><path class="j" d="m490.6 288.1l-11.8 7.4-0.5-0.8 11.8-7.4z"/><path class="j" d="m479.3 268.4l0.7 1.1q-0.1 0.2-0.2 0.4c-1.2 1.8-4.1 1.9-7.1 1.9-1.6 0.1-3.1 0.1-4.6 0.3q-1.9 0.3-2.6 1.7c-0.3 0.5-0.4 1.1-0.4 1.7l-0.8-1.2q0.1-0.5 0.4-0.9 0.9-1.8 3.2-2.2c1.6-0.3 3.2-0.3 4.7-0.3 2.8-0.1 5.5-0.1 6.4-1.5q0.2-0.4 0.3-1z"/><path class="j" d="m484.7 277l0.7 1.1q-0.1 0.2-0.2 0.4c-1.2 1.8-4.1 1.9-7.1 2-1.5 0-3.1 0-4.6 0.3q-1.9 0.3-2.6 1.6c-0.3 0.5-0.4 1.1-0.4 1.7l-0.8-1.2q0.1-0.5 0.4-0.9 0.9-1.8 3.3-2.2c1.5-0.2 3.1-0.3 4.7-0.3 2.7 0 5.4-0.1 6.3-1.5q0.3-0.4 0.3-1z"/><path class="w" d="m474.9 266.4l-2.7-1.2 10.8-24.3 0.7 0.3v-1.2h3z"/><path class="w" d="m496.9 240l10.6 25.3-2.8 1.1-9.8-23.4z"/><path class="w" d="m510.7 274.5v3h-15.5l0.6-3z"/><path class="x" d="m495.8 274.5l-0.6 3h-50.4v-3z"/><path class="w" d="m506.6 287.2v3h-13.9l0.6-3z"/><path class="x" d="m493.3 287.2l-0.6 3h-45.2v-3z"/><path class="w" d="m504.5 299.4h-14.9v-3h12.8l10.3-30h-16.5v-3h20.7z"/><path fill-rule="evenodd" class="x" d="m498 263.4l-2.2 11.1-0.6 3-1.9 9.7-0.6 3-1.9 9.2h-42.8l-7.2-36zm-5.3 11.1l1.6-8.1h-49.8l1.6 8.1 0.6 3 1.9 9.7 0.6 3 1.3 6.2h37.9l1.2-6.2 0.6-3 1.9-9.7z"/><path class="h" d="m466.4 194.5q15.4 12.6 18.2 0.8 6.4 3.5 8 4.5c1.5 0.9 4.2 4.3 5.2 7.7 1.1 3.4-1 16.7-2.9 21.9q-1.8 5.2-2.2 10h-34.2q-6.9-28.1-6.3-35.2c0.5-7.2 6.6-8.8 8.5-9.1q2-0.4 5.7-0.6z"/><path class="j" d="m467.5 209.4v18.2q2.2-14.5 0-18.2z"/><path class="j" d="m490 236.2q-0.1 0-0.2 0l-0.3-0.2c-0.3-0.2-0.3-0.5-0.2-0.7 0.2-0.3 0.5-0.3 0.7-0.2l0.3 0.2c0.3 0.2 0.3 0.5 0.2 0.7q-0.2 0.2-0.5 0.2z"/><path class="j" d="m488.7 234.2q-0.2 0-0.3-0.1l-0.3-0.2c-0.3-0.1-0.3-0.4-0.2-0.7 0.2-0.2 0.5-0.3 0.7-0.1l0.3 0.2c0.3 0.2 0.3 0.5 0.2 0.7q-0.2 0.2-0.4 0.2z"/><path class="j" d="m491.5 235q-0.1 0-0.3 0l-0.3-0.2c-0.2-0.2-0.3-0.5-0.1-0.7 0.1-0.3 0.4-0.3 0.7-0.2l0.3 0.2c0.2 0.2 0.3 0.5 0.1 0.7q-0.1 0.2-0.4 0.2z"/><path class="l" d="m506.9 246.8c-1.8-1.1-3.2-2.8-3.8-4.9-0.8-2.6-0.5-5.1 0.7-7.2 1-1.7 1.5-3.6 1.2-5.6l-0.6-4.1 10.5-1.4 0.6 4c0.2 2 1.3 3.8 2.7 5.3 1.3 1.3 2.2 3.1 2.5 5.1 0.3 2.7-0.6 5.4-2.4 7.3-0.5 0.5-1.2 0.9-1.9 1l-7.3 1c-0.8 0.1-1.5-0.1-2.2-0.5z"/><path class="g" d="m515.9 223.9l-12.3 1.6-0.2-1.7 12.2-1.6z"/><path class="g" d="m515.5 235.4c0.5 3.7-1 6.9-3.3 7.2-2.4 0.3-4.7-2.4-5.2-6.1-0.5-3.7 1-6.9 3.4-7.2 2.3-0.3 4.6 2.4 5.1 6.1z"/><path fill-rule="evenodd" class="j" d="m512.2 243.1c-2.6 0.4-5.1-2.5-5.7-6.5-0.5-4 1.1-7.5 3.8-7.8 2.6-0.4 5.1 2.5 5.7 6.5 0.5 4-1.1 7.4-3.8 7.8zm-1.8-13.3c-2 0.2-3.3 3.2-2.9 6.6 0.5 3.4 2.5 6 4.6 5.7 2-0.3 3.3-3.3 2.9-6.7-0.5-3.4-2.5-5.9-4.6-5.6z"/><path class="q" d="m520.8 243.6q-0.5 1.1-6 3c2.7-0.2 3.8 0.2 4.3 0.5 0.2 0.1 0.2 0.5 0 0.6-3.5 1.7-13.4 1.1-14.6 1.1-11.2 5.3-23.3 7.7-34.5 8.7q-4.6 0.3-8.9 0.4c-3.2 0.1-6-2.1-6.6-5.2-0.9-3.8-1.5-7.5-2-11.1-1.8-13.1-1.6-24.6-1.4-31 0-4 1-6.8 2.3-8.8 3.4-4.8 10.9-3.4 12.4 2.3 0.5 1.7 0.8 3.8 0.8 6.5 0.1 6.3 1 18.7 2.1 31.5 15.2 0.5 29.7 0.7 33.7 0.8 2.4-4.2 5.3-6.5 6.8-7.6 1.1-0.8 1.8-0.4 2.1 0 0.2 0.1 0.2 0.5 0 0.6-1 0.9-2.6 2.8-2.3 3.8 0.3 1 9-3.6 9.8-2.4q0.3 0.5-5.8 4 7.2-2.4 7.1-1.3-0.1 1-6.2 4 7.4-1.4 6.9-0.4z"/><path class="h" d="m464.5 200.3c1.3 1.3 2.1 3 2.1 4.9l1.7 22.4-18.8-1q0.1-15.7 1.9-22.1c0.6-2.2 1.8-3.7 3-4.6 3-2.3 7.2-2.1 10 0.4q0 0 0.1 0z"/><path class="j" d="m451.5 232.3l-0.3-5.7 16.3 1z"/><path class="j" d="m453.4 223.6q-0.2 0-0.3 0l-0.3-0.2c-0.2-0.2-0.3-0.5-0.1-0.7 0.1-0.3 0.4-0.3 0.7-0.2l0.3 0.2c0.2 0.2 0.3 0.5 0.1 0.7q-0.2 0.2-0.4 0.2z"/><path class="j" d="m452 221.6q-0.2 0-0.3-0.1l-0.3-0.2c-0.2-0.1-0.3-0.4-0.1-0.7 0.1-0.2 0.4-0.3 0.7-0.1l0.3 0.2c0.2 0.2 0.3 0.5 0.1 0.7q-0.2 0.2-0.4 0.2z"/><path class="j" d="m454.8 222.4q-0.1 0-0.2 0l-0.3-0.2c-0.3-0.2-0.3-0.5-0.2-0.7 0.2-0.3 0.5-0.3 0.7-0.2l0.3 0.2c0.3 0.2 0.3 0.5 0.2 0.7q-0.2 0.2-0.5 0.2z"/><path class="x" d="m453.6 266.4l-2.8-1.1 10.6-25.3h22.3v2.9l-20.3 0.1z"/><path class="x" d="m495 242.8l-18.8 0.2 9.9 22.2-2.7 1.2-11.8-26.4h3 22.3z"/><circle class="h" cx="87.6" cy="65.1" r="8.9"/><path class="l" d="m114.8 65.1h-54.5v-5.5c0-15.1 12.2-27.3 27.3-27.3 15 0 27.2 12.2 27.2 27.3z"/><path class="l" d="m88.4 37.6h-1.7v-36.6h1.7z"/><path class="f" d="m65.1 62.1h45"/><path class="j" d="m83.7 71.7q-0.2 0-0.3 0l-0.3-0.2c-0.2-0.2-0.3-0.5-0.1-0.7 0.1-0.3 0.4-0.3 0.7-0.2l0.3 0.2c0.2 0.2 0.3 0.5 0.1 0.7q-0.2 0.2-0.4 0.2z"/><path class="j" d="m82.3 69.7q-0.2 0-0.3-0.1l-0.3-0.2c-0.2-0.1-0.3-0.4-0.1-0.7 0.1-0.2 0.4-0.3 0.7-0.1l0.3 0.2c0.2 0.2 0.3 0.5 0.1 0.7q-0.2 0.2-0.4 0.2z"/><path class="j" d="m85.1 70.5q-0.1 0-0.2-0.1l-0.3-0.1c-0.3-0.2-0.3-0.5-0.2-0.7 0.2-0.3 0.5-0.3 0.7-0.2l0.3 0.2c0.3 0.2 0.3 0.5 0.2 0.7q-0.2 0.2-0.5 0.2z"/><path class="h" d="m393 88.3h-76.5v-42.3h76.5z"/><path class="f" d="m322.9 49.7v-48.7"/><path class="f" d="m386.6 49.7v-48.7"/><path class="j" d="m321 85.6q-0.2 0-0.3-0.1l-0.3-0.2c-0.2-0.2-0.3-0.5-0.2-0.7 0.2-0.3 0.5-0.3 0.7-0.2l0.3 0.2c0.3 0.2 0.3 0.5 0.2 0.7q-0.2 0.2-0.4 0.3z"/><path class="j" d="m319.6 83.5q-0.2 0-0.3-0.1l-0.3-0.2c-0.2-0.1-0.3-0.4-0.2-0.6 0.2-0.3 0.5-0.3 0.7-0.2l0.3 0.2c0.3 0.2 0.3 0.5 0.2 0.7q-0.2 0.2-0.4 0.2z"/><path class="j" d="m322.4 84.4q-0.1 0-0.3-0.1l-0.3-0.2c-0.2-0.2-0.3-0.5-0.1-0.7 0.1-0.3 0.5-0.3 0.7-0.2l0.3 0.2c0.2 0.2 0.3 0.5 0.1 0.7q-0.1 0.2-0.4 0.3z"/><path class="h" d="m686.8 88.3h-153v-42.3h153z"/><path class="f" d="m540 49.7v-48.7"/><path class="f" d="m680.5 49.7v-48.7"/><path class="j" d="m538.9 85.5q-0.2 0-0.3-0.1l-0.3-0.2c-0.3-0.1-0.3-0.5-0.2-0.7 0.2-0.2 0.5-0.3 0.7-0.1l0.3 0.2c0.3 0.1 0.3 0.4 0.2 0.7q-0.2 0.2-0.4 0.2z"/><path class="j" d="m537.5 83.5q-0.2 0-0.3-0.1l-0.3-0.2c-0.2-0.2-0.3-0.5-0.2-0.7 0.2-0.2 0.5-0.3 0.7-0.1l0.3 0.2c0.3 0.1 0.3 0.4 0.2 0.6q-0.2 0.3-0.4 0.3z"/><path class="j" d="m540.3 84.3q-0.1 0-0.3-0.1l-0.3-0.2c-0.2-0.1-0.3-0.5-0.1-0.7 0.1-0.2 0.5-0.3 0.7-0.1l0.3 0.2c0.2 0.1 0.3 0.4 0.1 0.7q-0.1 0.2-0.4 0.2z"/></svg>